<?xml version="1.0" encoding="utf-8"?>
<svg version="1.1" id="Layer_1" xmlns="http://www.w3.org/2000/svg" xmlns:xlink="http://www.w3.org/1999/xlink" x="0px" y="0px"
	 viewBox="0 0 1080 1080" style="enable-background:new 0 0 1080 1080;" xml:space="preserve">
<style type="text/css">
	.st0{fill:#373152;}
	.st1{fill:url(#SVGID_1_);}
</style>
<g>
	<path class="st0" d="M425.63,538.12L425.63,538.12c-4.82-4.82-4.82-12.63,0-17.45l190.2-190.2c4.82-4.82,12.63-4.82,17.45,0l0,0
		c4.82,4.82,4.82,12.63,0,17.45l-190.2,190.2C438.26,542.94,430.44,542.94,425.63,538.12z M377.78,585.97
		c-4.82-4.82-12.64-4.82-17.45,0l-89.18,89.18v34.9l106.63-106.63c2.4-2.41,3.61-5.57,3.61-8.73
		C381.39,591.54,380.18,588.38,377.78,585.97z M754.95,193.95l-1.3-1.3l-72.52,72.52c-4.82,4.82-4.82,12.63,0,17.45
		c4.81,4.82,12.63,4.82,17.45,0l72.53-72.53L754.95,193.95z M740.35,691.45l-7.9-7.9l-8.2-8.21l-71.98,71.98
		c-4.81,4.82-4.81,12.63,0,17.45h0.01c4.81,4.82,12.63,4.82,17.45,0l71.97-71.97L740.35,691.45z M604.43,812.62L604.43,812.62
		c-4.82-4.82-12.64-4.82-17.46,0L478.74,920.85h34.91l90.78-90.78C609.24,825.25,609.24,817.44,604.43,812.62z M333.95,159.15
		l-62.8,62.8v34.9l97.7-97.7H333.95z M428.8,779L619,588.8c4.82-4.82,4.82-12.63,0-17.45v0c-4.82-4.82-12.63-4.82-17.45,0
		l-190.2,190.2c-4.82,4.82-4.82,12.63,0,17.45h0C416.17,783.82,423.98,783.82,428.8,779z M363.5,826.85
		c-4.82-4.82-12.63-4.82-17.45,0l-74.9,74.9v19.1h15.8l76.55-76.55c2.41-2.41,3.62-5.57,3.62-8.73
		C367.12,832.41,365.91,829.25,363.5,826.85z M666.85,506.05c-4.82,4.81-4.82,12.63,0,17.45c4.82,4.81,12.63,4.81,17.45,0
		l124.55-124.55v-34.9L666.85,506.05z M705.35,920.85h34.9l68.5-68.5v-34.9L705.35,920.85z M392.4,344.75
		c-4.82-4.82-12.63-4.82-17.45,0l-103.8,103.8v34.9L392.4,362.2c2.41-2.41,3.62-5.57,3.62-8.73S394.81,347.15,392.4,344.75z
		 M560.55,159.15l-120.3,120.3c-4.82,4.81-4.82,12.63,0,17.45c4.82,4.81,12.63,4.81,17.45,0l137.75-137.75H560.55z"/>
	
		<linearGradient id="SVGID_1_" gradientUnits="userSpaceOnUse" x1="110.575" y1="529.158" x2="917.075" y2="529.158" gradientTransform="matrix(1 0 0 1 26.175 10.842)">
		<stop  offset="0" style="stop-color:#FF2C55"/>
		<stop  offset="1" style="stop-color:#FD4E4B"/>
	</linearGradient>
	<path class="st1" d="M915.55,164.45L915.55,164.45l-48.1-48.1l-7.9-7.9l-56-56l0,0l-27.7-27.7h-639.1v1030.5h806.5v-351.1
		l-59.7-59.7l-40.5-40.5l100.2-100.2v-311.6L915.55,164.45z M808.85,448.15l-155.9,155.8l79.5,79.6l7.9,7.9l48.1,48.1l0,0l20.3,20.3
		v161h-537.6v-761.7h449l34.8,34.8l53.9,53.8L808.85,448.15L808.85,448.15z"/>
</g>
</svg>
