<?xml version="1.0" standalone="no"?><svg xmlns:xlink="http://www.w3.org/1999/xlink" xmlns="http://www.w3.org/2000/svg" viewBox="0 0 1000 272.72447795823666" preserveAspectRatio="xMaxYMax slice"><g transform="scale(0.580046403712297)"><rect x="0" y="0" width="1724" height="470.18181818181813" fill="#373152"/><rect x="0" y="0" width="156.72727272727272" height="156.72727272727272" fill="#373152"/><rect x="0" y="0" width="78.36" height="78.36" fill="#3e3152"/><g transform="translate(0,0) scale(3.918) rotate(0)"><path d="M13 0H20V7L7 20H0V13L13 0Z" fill="#373152"/></g><rect x="78.36" y="0" width="78.36" height="78.36" fill="#373152"/><g transform="translate(78.36,0) scale(3.918) rotate(0)"><path fill-rule="evenodd" clip-rule="evenodd" d="M10 20C15.5228 20 20 15.5228 20 10C20 4.47715 15.5228 0 10 0C4.47715 0 0 4.47715 0 10C0 15.5228 4.47715 20 10 20ZM10 17C13.866 17 17 13.866 17 10C17 6.13401 13.866 3 10 3C6.13401 3 3 6.13401 3 10C3 13.866 6.13401 17 10 17Z" fill="#373152"/></g><rect x="0" y="78.36" width="78.36" height="78.36" fill="#fa2c55"/><g transform="translate(0,78.36) scale(3.918) rotate(0)"><path fill-rule="evenodd" clip-rule="evenodd" d="M10 20C15.5228 20 20 15.5228 20 10C20 4.47715 15.5228 0 10 0C4.47715 0 0 4.47715 0 10C0 15.5228 4.47715 20 10 20ZM10 17C13.866 17 17 13.866 17 10C17 6.13401 13.866 3 10 3C6.13401 3 3 6.13401 3 10C3 13.866 6.13401 17 10 17Z" fill="#373152"/></g><rect x="78.36" y="78.36" width="78.36" height="78.36" fill="#373152"/><g transform="translate(78.36,78.36) scale(3.918) rotate(0)"><rect width="20" height="10" fill="#f52c55"/></g><rect x="156.73" y="0" width="156.73" height="156.73" fill="#373152"/><g transform="translate(156.73,0) scale(7.836499999999999) rotate(0)"><path d="M5 0H10L5 5L0 10V5L5 0Z" fill="#373152"/><path d="M20 15V20H15L20 15Z" fill="#373152"/><path d="M20 5V10L15 15L10 20H5L20 5Z" fill="#373152"/><path d="M15 0H20L5 15.0002L0 20.0002V15.0002L15 0Z" fill="#373152"/></g><rect x="313.45" y="0" width="156.73" height="156.73" fill="#4b3052"/><g transform="translate(313.45,0) scale(7.836499999999999) rotate(0)"><rect width="20" height="10" fill="#373152"/></g><rect x="470.18" y="0" width="156.73" height="156.73" fill="#373152"/><g transform="translate(470.18,0) scale(7.836499999999999) rotate(0)"><path fill-rule="evenodd" clip-rule="evenodd" d="M10 20C15.5228 20 20 15.5228 20 10C20 4.47715 15.5228 0 10 0C4.47715 0 0 4.47715 0 10C0 15.5228 4.47715 20 10 20ZM10 17C13.866 17 17 13.866 17 10C17 6.13401 13.866 3 10 3C6.13401 3 3 6.13401 3 10C3 13.866 6.13401 17 10 17Z" fill="#d32d54"/></g><rect x="626.91" y="0" width="156.73" height="156.73" fill="#373152"/><g transform="translate(626.91,0) scale(7.836499999999999) rotate(0)"><rect width="20" height="10" fill="#962f53"/></g><rect x="783.6363636363636" y="0" width="156.72727272727272" height="156.72727272727272" fill="#373152"/><rect x="783.64" y="0" width="78.36" height="78.36" fill="#8b2f53"/><g transform="translate(783.64,0) scale(3.918) rotate(0)"><path d="M5 0H10L5 5L0 10V5L5 0Z" fill="#373152"/><path d="M20 15V20H15L20 15Z" fill="#373152"/><path d="M20 5V10L15 15L10 20H5L20 5Z" fill="#373152"/><path d="M15 0H20L5 15.0002L0 20.0002V15.0002L15 0Z" fill="#373152"/></g><rect x="862" y="0" width="78.36" height="78.36" fill="#4d3052"/><g transform="translate(862,0) scale(3.918) rotate(0)"><path d="M10 0H20L0 20V10L10 0Z" fill="#d72d54"/><path d="M20 10V20H10L20 10Z" fill="#d72d54"/></g><rect x="783.64" y="78.36" width="78.36" height="78.36" fill="#373152"/><g transform="translate(783.64,78.36) scale(3.918) rotate(0)"><path d="M13 0H20V7L7 20H0V13L13 0Z" fill="#373152"/></g><rect x="862" y="78.36" width="78.36" height="78.36" fill="#4d3052"/><g transform="translate(862,78.36) scale(3.918) rotate(0)"><path d="M13 0H20V7L7 20H0V13L13 0Z" fill="#373152"/></g><rect x="940.36" y="0" width="156.73" height="156.73" fill="#373152"/><g transform="translate(940.36,0) scale(7.836499999999999) rotate(0)"><rect width="20" height="10" fill="#b72e54"/></g><rect x="1097.09" y="0" width="156.73" height="156.73" fill="#762f53"/><g transform="translate(1097.09,0) scale(7.836499999999999) rotate(0)"><path d="M5 0H10L5 5L0 10V5L5 0Z" fill="#db2d54"/><path d="M20 15V20H15L20 15Z" fill="#db2d54"/><path d="M20 5V10L15 15L10 20H5L20 5Z" fill="#db2d54"/><path d="M15 0H20L5 15.0002L0 20.0002V15.0002L15 0Z" fill="#db2d54"/></g><rect x="1253.82" y="0" width="156.73" height="156.73" fill="#ed2c55"/><g transform="translate(1253.82,0) scale(7.836499999999999) rotate(0)"><path d="M5 0H10L5 5L0 10V5L5 0Z" fill="#e62d55"/><path d="M20 15V20H15L20 15Z" fill="#e62d55"/><path d="M20 5V10L15 15L10 20H5L20 5Z" fill="#e62d55"/><path d="M15 0H20L5 15.0002L0 20.0002V15.0002L15 0Z" fill="#e62d55"/></g><rect x="1410.55" y="0" width="156.73" height="156.73" fill="#373152"/><g transform="translate(1410.55,0) scale(7.836499999999999) rotate(0)"><path d="M10 0H20L0 20V10L10 0Z" fill="#5f3053"/><path d="M20 10V20H10L20 10Z" fill="#5f3053"/></g><rect x="1567.2727272727273" y="0" width="156.72727272727272" height="156.72727272727272" fill="#373152"/><rect x="1567.27" y="0" width="78.36" height="78.36" fill="#8f2f53"/><g transform="translate(1567.27,0) scale(3.918) rotate(0)"><path d="M13 0H20V7L7 20H0V13L13 0Z" fill="#3f3152"/></g><rect x="1645.64" y="0" width="78.36" height="78.36" fill="#543052"/><g transform="translate(1645.64,0) scale(3.918) rotate(0)"><path d="M10 0H20L0 20V10L10 0Z" fill="#373152"/><path d="M20 10V20H10L20 10Z" fill="#373152"/></g><rect x="1567.27" y="78.36" width="78.36" height="78.36" fill="#ad2e54"/><g transform="translate(1567.27,78.36) scale(3.918) rotate(0)"><rect width="20" height="10" fill="#373152"/></g><rect x="1645.64" y="78.36" width="78.36" height="78.36" fill="#a62e54"/><g transform="translate(1645.64,78.36) scale(3.918) rotate(0)"><path d="M10 0H20L0 20V10L10 0Z" fill="#8c2f53"/><path d="M20 10V20H10L20 10Z" fill="#8c2f53"/></g><rect x="0" y="156.72727272727272" width="156.72727272727272" height="156.72727272727272" fill="#373152"/><rect x="0" y="156.73" width="78.36" height="78.36" fill="#d72d54"/><g transform="translate(0,156.73) scale(3.918) rotate(0)"><rect width="20" height="10" fill="#373152"/></g><rect x="78.36" y="156.73" width="78.36" height="78.36" fill="#d72d54"/><g transform="translate(78.36,156.73) scale(3.918) rotate(0)"><rect width="20" height="10" fill="#373152"/></g><rect x="0" y="235.09" width="78.36" height="78.36" fill="#373152"/><g transform="translate(0,235.09) scale(3.918) rotate(0)"><path d="M10 0H20L0 20V10L10 0Z" fill="#373152"/><path d="M20 10V20H10L20 10Z" fill="#373152"/></g><rect x="78.36" y="235.09" width="78.36" height="78.36" fill="#373152"/><g transform="translate(78.36,235.09) scale(3.918) rotate(0)"><path d="M5 0H10L5 5L0 10V5L5 0Z" fill="#d72d54"/><path d="M20 15V20H15L20 15Z" fill="#d72d54"/><path d="M20 5V10L15 15L10 20H5L20 5Z" fill="#d72d54"/><path d="M15 0H20L5 15.0002L0 20.0002V15.0002L15 0Z" fill="#d72d54"/></g><rect x="156.73" y="156.73" width="156.73" height="156.73" fill="#563052"/><g transform="translate(156.73,156.73) scale(7.836499999999999) rotate(0)"><path d="M10 0H20L0 20V10L10 0Z" fill="#373152"/><path d="M20 10V20H10L20 10Z" fill="#373152"/></g><rect x="313.45454545454544" y="156.72727272727272" width="156.72727272727272" height="156.72727272727272" fill="#373152"/><rect x="313.45" y="156.73" width="78.36" height="78.36" fill="#d92d54"/><g transform="translate(313.45,156.73) scale(3.918) rotate(0)"><path d="M10 0H20L0 20V10L10 0Z" fill="#752f53"/><path d="M20 10V20H10L20 10Z" fill="#752f53"/></g><rect x="391.82" y="156.73" width="78.36" height="78.36" fill="#373152"/><g transform="translate(391.82,156.73) scale(3.918) rotate(0)"><path fill-rule="evenodd" clip-rule="evenodd" d="M10 20C15.5228 20 20 15.5228 20 10C20 4.47715 15.5228 0 10 0C4.47715 0 0 4.47715 0 10C0 15.5228 4.47715 20 10 20ZM10 17C13.866 17 17 13.866 17 10C17 6.13401 13.866 3 10 3C6.13401 3 3 6.13401 3 10C3 13.866 6.13401 17 10 17Z" fill="#373152"/></g><rect x="313.45" y="235.09" width="78.36" height="78.36" fill="#b72e54"/><g transform="translate(313.45,235.09) scale(3.918) rotate(0)"><path d="M5 0H10L5 5L0 10V5L5 0Z" fill="#373152"/><path d="M20 15V20H15L20 15Z" fill="#373152"/><path d="M20 5V10L15 15L10 20H5L20 5Z" fill="#373152"/><path d="M15 0H20L5 15.0002L0 20.0002V15.0002L15 0Z" fill="#373152"/></g><rect x="391.82" y="235.09" width="78.36" height="78.36" fill="#c12e54"/><g transform="translate(391.82,235.09) scale(3.918) rotate(0)"><path d="M10 0H20L0 20V10L10 0Z" fill="#373152"/><path d="M20 10V20H10L20 10Z" fill="#373152"/></g><rect x="470.18" y="156.73" width="156.73" height="156.73" fill="#553052"/><g transform="translate(470.18,156.73) scale(7.836499999999999) rotate(0)"><rect width="20" height="10" fill="#373152"/></g><rect x="626.9090909090909" y="156.72727272727272" width="156.72727272727272" height="156.72727272727272" fill="#373152"/><rect x="626.91" y="156.73" width="78.36" height="78.36" fill="#bd2e54"/><g transform="translate(626.91,156.73) scale(3.918) rotate(0)"><path d="M5 0H10L5 5L0 10V5L5 0Z" fill="#9a2f53"/><path d="M20 15V20H15L20 15Z" fill="#9a2f53"/><path d="M20 5V10L15 15L10 20H5L20 5Z" fill="#9a2f53"/><path d="M15 0H20L5 15.0002L0 20.0002V15.0002L15 0Z" fill="#9a2f53"/></g><rect x="705.27" y="156.73" width="78.36" height="78.36" fill="#d22d54"/><g transform="translate(705.27,156.73) scale(3.918) rotate(0)"><path d="M10 0H20L0 20V10L10 0Z" fill="#373152"/><path d="M20 10V20H10L20 10Z" fill="#373152"/></g><rect x="626.91" y="235.09" width="78.36" height="78.36" fill="#e12d55"/><g transform="translate(626.91,235.09) scale(3.918) rotate(0)"><rect width="20" height="10" fill="#fb2c55"/></g><rect x="705.27" y="235.09" width="78.36" height="78.36" fill="#373152"/><g transform="translate(705.27,235.09) scale(3.918) rotate(0)"><path d="M10 0H20L0 20V10L10 0Z" fill="#463152"/><path d="M20 10V20H10L20 10Z" fill="#463152"/></g><rect x="783.6363636363636" y="156.72727272727272" width="156.72727272727272" height="156.72727272727272" fill="#373152"/><rect x="783.64" y="156.73" width="78.36" height="78.36" fill="#373152"/><g transform="translate(783.64,156.73) scale(3.918) rotate(0)"><rect width="20" height="10" fill="#b22e54"/></g><rect x="862" y="156.73" width="78.36" height="78.36" fill="#503052"/><g transform="translate(862,156.73) scale(3.918) rotate(0)"><path fill-rule="evenodd" clip-rule="evenodd" d="M10 20C15.5228 20 20 15.5228 20 10C20 4.47715 15.5228 0 10 0C4.47715 0 0 4.47715 0 10C0 15.5228 4.47715 20 10 20ZM10 17C13.866 17 17 13.866 17 10C17 6.13401 13.866 3 10 3C6.13401 3 3 6.13401 3 10C3 13.866 6.13401 17 10 17Z" fill="#772f53"/></g><rect x="783.64" y="235.09" width="78.36" height="78.36" fill="#373152"/><g transform="translate(783.64,235.09) scale(3.918) rotate(0)"><rect width="20" height="10" fill="#373152"/></g><rect x="862" y="235.09" width="78.36" height="78.36" fill="#373152"/><g transform="translate(862,235.09) scale(3.918) rotate(0)"><rect width="20" height="10" fill="#373152"/></g><rect x="940.3636363636363" y="156.72727272727272" width="156.72727272727272" height="156.72727272727272" fill="#373152"/><rect x="940.36" y="156.73" width="78.36" height="78.36" fill="#503052"/><g transform="translate(940.36,156.73) scale(3.918) rotate(0)"><path fill-rule="evenodd" clip-rule="evenodd" d="M10 20C15.5228 20 20 15.5228 20 10C20 4.47715 15.5228 0 10 0C4.47715 0 0 4.47715 0 10C0 15.5228 4.47715 20 10 20ZM10 17C13.866 17 17 13.866 17 10C17 6.13401 13.866 3 10 3C6.13401 3 3 6.13401 3 10C3 13.866 6.13401 17 10 17Z" fill="#373152"/></g><rect x="1018.73" y="156.73" width="78.36" height="78.36" fill="#a92e54"/><g transform="translate(1018.73,156.73) scale(3.918) rotate(0)"><path d="M13 0H20V7L7 20H0V13L13 0Z" fill="#373152"/></g><rect x="940.36" y="235.09" width="78.36" height="78.36" fill="#ef2c55"/><g transform="translate(940.36,235.09) scale(3.918) rotate(0)"><path d="M10 0H20L0 20V10L10 0Z" fill="#fa2c55"/><path d="M20 10V20H10L20 10Z" fill="#fa2c55"/></g><rect x="1018.73" y="235.09" width="78.36" height="78.36" fill="#fe2c55"/><g transform="translate(1018.73,235.09) scale(3.918) rotate(0)"><path d="M5 0H10L5 5L0 10V5L5 0Z" fill="#703053"/><path d="M20 15V20H15L20 15Z" fill="#703053"/><path d="M20 5V10L15 15L10 20H5L20 5Z" fill="#703053"/><path d="M15 0H20L5 15.0002L0 20.0002V15.0002L15 0Z" fill="#703053"/></g><rect x="1097.09" y="156.73" width="156.73" height="156.73" fill="#af2e54"/><g transform="translate(1097.09,156.73) scale(7.836499999999999) rotate(0)"><path d="M13 0H20V7L7 20H0V13L13 0Z" fill="#373152"/></g><rect x="1253.8181818181818" y="156.72727272727272" width="156.72727272727272" height="156.72727272727272" fill="#373152"/><rect x="1253.82" y="156.73" width="78.36" height="78.36" fill="#d22d54"/><g transform="translate(1253.82,156.73) scale(3.918) rotate(0)"><path fill-rule="evenodd" clip-rule="evenodd" d="M10 20C15.5228 20 20 15.5228 20 10C20 4.47715 15.5228 0 10 0C4.47715 0 0 4.47715 0 10C0 15.5228 4.47715 20 10 20ZM10 17C13.866 17 17 13.866 17 10C17 6.13401 13.866 3 10 3C6.13401 3 3 6.13401 3 10C3 13.866 6.13401 17 10 17Z" fill="#373152"/></g><rect x="1332.18" y="156.73" width="78.36" height="78.36" fill="#373152"/><g transform="translate(1332.18,156.73) scale(3.918) rotate(0)"><path d="M13 0H20V7L7 20H0V13L13 0Z" fill="#af2e54"/></g><rect x="1253.82" y="235.09" width="78.36" height="78.36" fill="#c72d54"/><g transform="translate(1253.82,235.09) scale(3.918) rotate(0)"><path d="M10 0H20L0 20V10L10 0Z" fill="#d32d54"/><path d="M20 10V20H10L20 10Z" fill="#d32d54"/></g><rect x="1332.18" y="235.09" width="78.36" height="78.36" fill="#373152"/><g transform="translate(1332.18,235.09) scale(3.918) rotate(0)"><path d="M13 0H20V7L7 20H0V13L13 0Z" fill="#c42d54"/></g><rect x="1410.5454545454545" y="156.72727272727272" width="156.72727272727272" height="156.72727272727272" fill="#373152"/><rect x="1410.55" y="156.73" width="78.36" height="78.36" fill="#373152"/><g transform="translate(1410.55,156.73) scale(3.918) rotate(0)"><path d="M13 0H20V7L7 20H0V13L13 0Z" fill="#f92c55"/></g><rect x="1488.91" y="156.73" width="78.36" height="78.36" fill="#473152"/><g transform="translate(1488.91,156.73) scale(3.918) rotate(0)"><path d="M5 0H10L5 5L0 10V5L5 0Z" fill="#962f53"/><path d="M20 15V20H15L20 15Z" fill="#962f53"/><path d="M20 5V10L15 15L10 20H5L20 5Z" fill="#962f53"/><path d="M15 0H20L5 15.0002L0 20.0002V15.0002L15 0Z" fill="#962f53"/></g><rect x="1410.55" y="235.09" width="78.36" height="78.36" fill="#a82e54"/><g transform="translate(1410.55,235.09) scale(3.918) rotate(0)"><path fill-rule="evenodd" clip-rule="evenodd" d="M10 20C15.5228 20 20 15.5228 20 10C20 4.47715 15.5228 0 10 0C4.47715 0 0 4.47715 0 10C0 15.5228 4.47715 20 10 20ZM10 17C13.866 17 17 13.866 17 10C17 6.13401 13.866 3 10 3C6.13401 3 3 6.13401 3 10C3 13.866 6.13401 17 10 17Z" fill="#373152"/></g><rect x="1488.91" y="235.09" width="78.36" height="78.36" fill="#373152"/><g transform="translate(1488.91,235.09) scale(3.918) rotate(0)"><path d="M13 0H20V7L7 20H0V13L13 0Z" fill="#373152"/></g><rect x="1567.27" y="156.73" width="156.73" height="156.73" fill="#4f3052"/><g transform="translate(1567.27,156.73) scale(7.836499999999999) rotate(0)"><path fill-rule="evenodd" clip-rule="evenodd" d="M10 20C15.5228 20 20 15.5228 20 10C20 4.47715 15.5228 0 10 0C4.47715 0 0 4.47715 0 10C0 15.5228 4.47715 20 10 20ZM10 17C13.866 17 17 13.866 17 10C17 6.13401 13.866 3 10 3C6.13401 3 3 6.13401 3 10C3 13.866 6.13401 17 10 17Z" fill="#373152"/></g><rect x="0" y="313.45" width="156.73" height="156.73" fill="#dd2d54"/><g transform="translate(0,313.45) scale(7.836499999999999) rotate(0)"><rect width="20" height="10" fill="#373152"/></g><rect x="156.73" y="313.45" width="156.73" height="156.73" fill="#373152"/><g transform="translate(156.73,313.45) scale(7.836499999999999) rotate(0)"><path d="M13 0H20V7L7 20H0V13L13 0Z" fill="#373152"/></g><rect x="313.45" y="313.45" width="156.73" height="156.73" fill="#c52d54"/><g transform="translate(313.45,313.45) scale(7.836499999999999) rotate(0)"><path d="M10 0H20L0 20V10L10 0Z" fill="#de2d55"/><path d="M20 10V20H10L20 10Z" fill="#de2d55"/></g><rect x="470.18" y="313.45" width="156.73" height="156.73" fill="#373152"/><g transform="translate(470.18,313.45) scale(7.836499999999999) rotate(0)"><path d="M5 0H10L5 5L0 10V5L5 0Z" fill="#413152"/><path d="M20 15V20H15L20 15Z" fill="#413152"/><path d="M20 5V10L15 15L10 20H5L20 5Z" fill="#413152"/><path d="M15 0H20L5 15.0002L0 20.0002V15.0002L15 0Z" fill="#413152"/></g><rect x="626.91" y="313.45" width="156.73" height="156.73" fill="#f32c55"/><g transform="translate(626.91,313.45) scale(7.836499999999999) rotate(0)"><path d="M13 0H20V7L7 20H0V13L13 0Z" fill="#373152"/></g><rect x="783.64" y="313.45" width="156.73" height="156.73" fill="#373152"/><g transform="translate(783.64,313.45) scale(7.836499999999999) rotate(0)"><rect width="20" height="10" fill="#373152"/></g><rect x="940.36" y="313.45" width="156.73" height="156.73" fill="#d42d54"/><g transform="translate(940.36,313.45) scale(7.836499999999999) rotate(0)"><path fill-rule="evenodd" clip-rule="evenodd" d="M10 20C15.5228 20 20 15.5228 20 10C20 4.47715 15.5228 0 10 0C4.47715 0 0 4.47715 0 10C0 15.5228 4.47715 20 10 20ZM10 17C13.866 17 17 13.866 17 10C17 6.13401 13.866 3 10 3C6.13401 3 3 6.13401 3 10C3 13.866 6.13401 17 10 17Z" fill="#9c2e54"/></g><rect x="1097.09" y="313.45" width="156.73" height="156.73" fill="#373152"/><g transform="translate(1097.09,313.45) scale(7.836499999999999) rotate(0)"><path d="M5 0H10L5 5L0 10V5L5 0Z" fill="#373152"/><path d="M20 15V20H15L20 15Z" fill="#373152"/><path d="M20 5V10L15 15L10 20H5L20 5Z" fill="#373152"/><path d="M15 0H20L5 15.0002L0 20.0002V15.0002L15 0Z" fill="#373152"/></g><rect x="1253.82" y="313.45" width="156.73" height="156.73" fill="#373152"/><g transform="translate(1253.82,313.45) scale(7.836499999999999) rotate(0)"><path fill-rule="evenodd" clip-rule="evenodd" d="M10 20C15.5228 20 20 15.5228 20 10C20 4.47715 15.5228 0 10 0C4.47715 0 0 4.47715 0 10C0 15.5228 4.47715 20 10 20ZM10 17C13.866 17 17 13.866 17 10C17 6.13401 13.866 3 10 3C6.13401 3 3 6.13401 3 10C3 13.866 6.13401 17 10 17Z" fill="#e12d55"/></g><rect x="1410.55" y="313.45" width="156.73" height="156.73" fill="#a42e54"/><g transform="translate(1410.55,313.45) scale(7.836499999999999) rotate(0)"><rect width="20" height="10" fill="#563052"/></g><rect x="1567.2727272727273" y="313.45454545454544" width="156.72727272727272" height="156.72727272727272" fill="#373152"/><rect x="1567.27" y="313.45" width="78.36" height="78.36" fill="#a32e54"/><g transform="translate(1567.27,313.45) scale(3.918) rotate(0)"><path d="M5 0H10L5 5L0 10V5L5 0Z" fill="#da2d54"/><path d="M20 15V20H15L20 15Z" fill="#da2d54"/><path d="M20 5V10L15 15L10 20H5L20 5Z" fill="#da2d54"/><path d="M15 0H20L5 15.0002L0 20.0002V15.0002L15 0Z" fill="#da2d54"/></g><rect x="1645.64" y="313.45" width="78.36" height="78.36" fill="#373152"/><g transform="translate(1645.64,313.45) scale(3.918) rotate(0)"><path fill-rule="evenodd" clip-rule="evenodd" d="M10 20C15.5228 20 20 15.5228 20 10C20 4.47715 15.5228 0 10 0C4.47715 0 0 4.47715 0 10C0 15.5228 4.47715 20 10 20ZM10 17C13.866 17 17 13.866 17 10C17 6.13401 13.866 3 10 3C6.13401 3 3 6.13401 3 10C3 13.866 6.13401 17 10 17Z" fill="#373152"/></g><rect x="1567.27" y="391.82" width="78.36" height="78.36" fill="#373152"/><g transform="translate(1567.27,391.82) scale(3.918) rotate(0)"><path d="M13 0H20V7L7 20H0V13L13 0Z" fill="#373152"/></g><rect x="1645.64" y="391.82" width="78.36" height="78.36" fill="#bf2e54"/><g transform="translate(1645.64,391.82) scale(3.918) rotate(0)"><rect width="20" height="10" fill="#b22e54"/></g></g></svg>