<?xml version="1.0" standalone="no"?><svg xmlns:xlink="http://www.w3.org/1999/xlink" xmlns="http://www.w3.org/2000/svg" viewBox="0 0 1000 272.72447795823666" preserveAspectRatio="xMaxYMax slice"><g transform="scale(0.580046403712297)"><rect x="0" y="0" width="1724" height="470.18181818181813" fill="#F5F5F5"/><rect x="0" y="0" width="156.73" height="156.73" fill="#f5f5f5"/><g transform="translate(0,0) scale(7.836499999999999) rotate(0)"><path d="M5 0H10L5 5L0 10V5L5 0Z" fill="#fa8684"/><path d="M20 15V20H15L20 15Z" fill="#fa8684"/><path d="M20 5V10L15 15L10 20H5L20 5Z" fill="#fa8684"/><path d="M15 0H20L5 15.0002L0 20.0002V15.0002L15 0Z" fill="#fa8684"/></g><rect x="156.73" y="0" width="156.73" height="156.73" fill="#f5f5f5"/><g transform="translate(156.73,0) scale(7.836499999999999) rotate(0)"><path d="M10 0H20L0 20V10L10 0Z" fill="#f5f5f5"/><path d="M20 10V20H10L20 10Z" fill="#f5f5f5"/></g><rect x="313.45454545454544" y="0" width="156.72727272727272" height="156.72727272727272" fill="#F5F5F5"/><rect x="313.45" y="0" width="78.36" height="78.36" fill="#fc6360"/><g transform="translate(313.45,0) scale(3.918) rotate(0)"><path d="M10 0H20L0 20V10L10 0Z" fill="#f5f5f5"/><path d="M20 10V20H10L20 10Z" fill="#f5f5f5"/></g><rect x="391.82" y="0" width="78.36" height="78.36" fill="#fc625f"/><g transform="translate(391.82,0) scale(3.918) rotate(0)"><path d="M5 0H10L5 5L0 10V5L5 0Z" fill="#f5ebeb"/><path d="M20 15V20H15L20 15Z" fill="#f5ebeb"/><path d="M20 5V10L15 15L10 20H5L20 5Z" fill="#f5ebeb"/><path d="M15 0H20L5 15.0002L0 20.0002V15.0002L15 0Z" fill="#f5ebeb"/></g><rect x="313.45" y="78.36" width="78.36" height="78.36" fill="#f5f5f5"/><g transform="translate(313.45,78.36) scale(3.918) rotate(0)"><path d="M5 0H10L5 5L0 10V5L5 0Z" fill="#f5f2f2"/><path d="M20 15V20H15L20 15Z" fill="#f5f2f2"/><path d="M20 5V10L15 15L10 20H5L20 5Z" fill="#f5f2f2"/><path d="M15 0H20L5 15.0002L0 20.0002V15.0002L15 0Z" fill="#f5f2f2"/></g><rect x="391.82" y="78.36" width="78.36" height="78.36" fill="#f5f5f5"/><g transform="translate(391.82,78.36) scale(3.918) rotate(0)"><path d="M13 0H20V7L7 20H0V13L13 0Z" fill="#f5f5f5"/></g><rect x="470.18181818181813" y="0" width="156.72727272727272" height="156.72727272727272" fill="#F5F5F5"/><rect x="470.18" y="0" width="78.36" height="78.36" fill="#f5f5f5"/><g transform="translate(470.18,0) scale(3.918) rotate(0)"><path d="M13 0H20V7L7 20H0V13L13 0Z" fill="#fd5451"/></g><rect x="548.55" y="0" width="78.36" height="78.36" fill="#f5f5f5"/><g transform="translate(548.55,0) scale(3.918) rotate(0)"><path d="M5 0H10L5 5L0 10V5L5 0Z" fill="#f5f5f5"/><path d="M20 15V20H15L20 15Z" fill="#f5f5f5"/><path d="M20 5V10L15 15L10 20H5L20 5Z" fill="#f5f5f5"/><path d="M15 0H20L5 15.0002L0 20.0002V15.0002L15 0Z" fill="#f5f5f5"/></g><rect x="470.18" y="78.36" width="78.36" height="78.36" fill="#f5f5f5"/><g transform="translate(470.18,78.36) scale(3.918) rotate(0)"><path d="M13 0H20V7L7 20H0V13L13 0Z" fill="#f5f5f5"/></g><rect x="548.55" y="78.36" width="78.36" height="78.36" fill="#f5f5f5"/><g transform="translate(548.55,78.36) scale(3.918) rotate(0)"><path d="M13 0H20V7L7 20H0V13L13 0Z" fill="#fc6a67"/></g><rect x="626.9090909090909" y="0" width="156.72727272727272" height="156.72727272727272" fill="#F5F5F5"/><rect x="626.91" y="0" width="78.36" height="78.36" fill="#f5f5f5"/><g transform="translate(626.91,0) scale(3.918) rotate(0)"><path d="M5 0H10L5 5L0 10V5L5 0Z" fill="#f5f5f5"/><path d="M20 15V20H15L20 15Z" fill="#f5f5f5"/><path d="M20 5V10L15 15L10 20H5L20 5Z" fill="#f5f5f5"/><path d="M15 0H20L5 15.0002L0 20.0002V15.0002L15 0Z" fill="#f5f5f5"/></g><rect x="705.27" y="0" width="78.36" height="78.36" fill="#f5f5f5"/><g transform="translate(705.27,0) scale(3.918) rotate(0)"><path d="M13 0H20V7L7 20H0V13L13 0Z" fill="#f5f5f5"/></g><rect x="626.91" y="78.36" width="78.36" height="78.36" fill="#f7caca"/><g transform="translate(626.91,78.36) scale(3.918) rotate(0)"><path d="M10 0H20L0 20V10L10 0Z" fill="#f99e9c"/><path d="M20 10V20H10L20 10Z" fill="#f99e9c"/></g><rect x="705.27" y="78.36" width="78.36" height="78.36" fill="#fa908e"/><g transform="translate(705.27,78.36) scale(3.918) rotate(0)"><path d="M13 0H20V7L7 20H0V13L13 0Z" fill="#f5f5f5"/></g><rect x="783.6363636363636" y="0" width="156.72727272727272" height="156.72727272727272" fill="#F5F5F5"/><rect x="783.64" y="0" width="78.36" height="78.36" fill="#fa8785"/><g transform="translate(783.64,0) scale(3.918) rotate(0)"><path d="M13 0H20V7L7 20H0V13L13 0Z" fill="#f99896"/></g><rect x="862" y="0" width="78.36" height="78.36" fill="#fb7472"/><g transform="translate(862,0) scale(3.918) rotate(0)"><path d="M10 0H20L0 20V10L10 0Z" fill="#fb807e"/><path d="M20 10V20H10L20 10Z" fill="#fb807e"/></g><rect x="783.64" y="78.36" width="78.36" height="78.36" fill="#f5f5f5"/><g transform="translate(783.64,78.36) scale(3.918) rotate(0)"><rect width="20" height="10" fill="#f5f5f5"/></g><rect x="862" y="78.36" width="78.36" height="78.36" fill="#f5f2f1"/><g transform="translate(862,78.36) scale(3.918) rotate(0)"><path fill-rule="evenodd" clip-rule="evenodd" d="M10 20C15.5228 20 20 15.5228 20 10C20 4.47715 15.5228 0 10 0C4.47715 0 0 4.47715 0 10C0 15.5228 4.47715 20 10 20ZM10 17C13.866 17 17 13.866 17 10C17 6.13401 13.866 3 10 3C6.13401 3 3 6.13401 3 10C3 13.866 6.13401 17 10 17Z" fill="#f7c8c7"/></g><rect x="940.36" y="0" width="156.73" height="156.73" fill="#f5f0f0"/><g transform="translate(940.36,0) scale(7.836499999999999) rotate(0)"><path fill-rule="evenodd" clip-rule="evenodd" d="M10 20C15.5228 20 20 15.5228 20 10C20 4.47715 15.5228 0 10 0C4.47715 0 0 4.47715 0 10C0 15.5228 4.47715 20 10 20ZM10 17C13.866 17 17 13.866 17 10C17 6.13401 13.866 3 10 3C6.13401 3 3 6.13401 3 10C3 13.866 6.13401 17 10 17Z" fill="#f5f5f5"/></g><rect x="1097.090909090909" y="0" width="156.72727272727272" height="156.72727272727272" fill="#F5F5F5"/><rect x="1097.09" y="0" width="78.36" height="78.36" fill="#f8afae"/><g transform="translate(1097.09,0) scale(3.918) rotate(0)"><rect width="20" height="10" fill="#f8bcbb"/></g><rect x="1175.45" y="0" width="78.36" height="78.36" fill="#f5f5f5"/><g transform="translate(1175.45,0) scale(3.918) rotate(0)"><rect width="20" height="10" fill="#fb807e"/></g><rect x="1097.09" y="78.36" width="78.36" height="78.36" fill="#f8bebd"/><g transform="translate(1097.09,78.36) scale(3.918) rotate(0)"><path d="M5 0H10L5 5L0 10V5L5 0Z" fill="#f5f5f5"/><path d="M20 15V20H15L20 15Z" fill="#f5f5f5"/><path d="M20 5V10L15 15L10 20H5L20 5Z" fill="#f5f5f5"/><path d="M15 0H20L5 15.0002L0 20.0002V15.0002L15 0Z" fill="#f5f5f5"/></g><rect x="1175.45" y="78.36" width="78.36" height="78.36" fill="#f5f5f5"/><g transform="translate(1175.45,78.36) scale(3.918) rotate(0)"><path d="M5 0H10L5 5L0 10V5L5 0Z" fill="#f5f5f5"/><path d="M20 15V20H15L20 15Z" fill="#f5f5f5"/><path d="M20 5V10L15 15L10 20H5L20 5Z" fill="#f5f5f5"/><path d="M15 0H20L5 15.0002L0 20.0002V15.0002L15 0Z" fill="#f5f5f5"/></g><rect x="1253.82" y="0" width="156.73" height="156.73" fill="#f6dede"/><g transform="translate(1253.82,0) scale(7.836499999999999) rotate(0)"><path d="M5 0H10L5 5L0 10V5L5 0Z" fill="#f5f5f5"/><path d="M20 15V20H15L20 15Z" fill="#f5f5f5"/><path d="M20 5V10L15 15L10 20H5L20 5Z" fill="#f5f5f5"/><path d="M15 0H20L5 15.0002L0 20.0002V15.0002L15 0Z" fill="#f5f5f5"/></g><rect x="1410.55" y="0" width="156.73" height="156.73" fill="#f5f5f5"/><g transform="translate(1410.55,0) scale(7.836499999999999) rotate(0)"><path fill-rule="evenodd" clip-rule="evenodd" d="M10 20C15.5228 20 20 15.5228 20 10C20 4.47715 15.5228 0 10 0C4.47715 0 0 4.47715 0 10C0 15.5228 4.47715 20 10 20ZM10 17C13.866 17 17 13.866 17 10C17 6.13401 13.866 3 10 3C6.13401 3 3 6.13401 3 10C3 13.866 6.13401 17 10 17Z" fill="#f5f5f5"/></g><rect x="1567.27" y="0" width="156.73" height="156.73" fill="#fa9795"/><g transform="translate(1567.27,0) scale(7.836499999999999) rotate(0)"><rect width="20" height="10" fill="#f5f5f5"/></g><rect x="0" y="156.72727272727272" width="156.72727272727272" height="156.72727272727272" fill="#F5F5F5"/><rect x="0" y="156.73" width="78.36" height="78.36" fill="#f5f5f5"/><g transform="translate(0,156.73) scale(3.918) rotate(0)"><rect width="20" height="10" fill="#f9a6a4"/></g><rect x="78.36" y="156.73" width="78.36" height="78.36" fill="#f6e3e2"/><g transform="translate(78.36,156.73) scale(3.918) rotate(0)"><rect width="20" height="10" fill="#f8b4b3"/></g><rect x="0" y="235.09" width="78.36" height="78.36" fill="#f5f5f5"/><g transform="translate(0,235.09) scale(3.918) rotate(0)"><path fill-rule="evenodd" clip-rule="evenodd" d="M10 20C15.5228 20 20 15.5228 20 10C20 4.47715 15.5228 0 10 0C4.47715 0 0 4.47715 0 10C0 15.5228 4.47715 20 10 20ZM10 17C13.866 17 17 13.866 17 10C17 6.13401 13.866 3 10 3C6.13401 3 3 6.13401 3 10C3 13.866 6.13401 17 10 17Z" fill="#f5f5f5"/></g><rect x="78.36" y="235.09" width="78.36" height="78.36" fill="#fa8e8c"/><g transform="translate(78.36,235.09) scale(3.918) rotate(0)"><path fill-rule="evenodd" clip-rule="evenodd" d="M10 20C15.5228 20 20 15.5228 20 10C20 4.47715 15.5228 0 10 0C4.47715 0 0 4.47715 0 10C0 15.5228 4.47715 20 10 20ZM10 17C13.866 17 17 13.866 17 10C17 6.13401 13.866 3 10 3C6.13401 3 3 6.13401 3 10C3 13.866 6.13401 17 10 17Z" fill="#f5f5f5"/></g><rect x="156.72727272727272" y="156.72727272727272" width="156.72727272727272" height="156.72727272727272" fill="#F5F5F5"/><rect x="156.73" y="156.73" width="78.36" height="78.36" fill="#f5f5f5"/><g transform="translate(156.73,156.73) scale(3.918) rotate(0)"><path fill-rule="evenodd" clip-rule="evenodd" d="M10 20C15.5228 20 20 15.5228 20 10C20 4.47715 15.5228 0 10 0C4.47715 0 0 4.47715 0 10C0 15.5228 4.47715 20 10 20ZM10 17C13.866 17 17 13.866 17 10C17 6.13401 13.866 3 10 3C6.13401 3 3 6.13401 3 10C3 13.866 6.13401 17 10 17Z" fill="#f99998"/></g><rect x="235.09" y="156.73" width="78.36" height="78.36" fill="#f5f5f5"/><g transform="translate(235.09,156.73) scale(3.918) rotate(0)"><rect width="20" height="10" fill="#f5f5f5"/></g><rect x="156.73" y="235.09" width="78.36" height="78.36" fill="#f5f5f5"/><g transform="translate(156.73,235.09) scale(3.918) rotate(0)"><rect width="20" height="10" fill="#fa8e8d"/></g><rect x="235.09" y="235.09" width="78.36" height="78.36" fill="#fb7f7d"/><g transform="translate(235.09,235.09) scale(3.918) rotate(0)"><path d="M10 0H20L0 20V10L10 0Z" fill="#f5f5f5"/><path d="M20 10V20H10L20 10Z" fill="#f5f5f5"/></g><rect x="313.45454545454544" y="156.72727272727272" width="156.72727272727272" height="156.72727272727272" fill="#F5F5F5"/><rect x="313.45" y="156.73" width="78.36" height="78.36" fill="#f7d2d2"/><g transform="translate(313.45,156.73) scale(3.918) rotate(0)"><rect width="20" height="10" fill="#f99c9b"/></g><rect x="391.82" y="156.73" width="78.36" height="78.36" fill="#fc6462"/><g transform="translate(391.82,156.73) scale(3.918) rotate(0)"><path fill-rule="evenodd" clip-rule="evenodd" d="M10 20C15.5228 20 20 15.5228 20 10C20 4.47715 15.5228 0 10 0C4.47715 0 0 4.47715 0 10C0 15.5228 4.47715 20 10 20ZM10 17C13.866 17 17 13.866 17 10C17 6.13401 13.866 3 10 3C6.13401 3 3 6.13401 3 10C3 13.866 6.13401 17 10 17Z" fill="#f5f5f5"/></g><rect x="313.45" y="235.09" width="78.36" height="78.36" fill="#f5f5f5"/><g transform="translate(313.45,235.09) scale(3.918) rotate(0)"><path fill-rule="evenodd" clip-rule="evenodd" d="M10 20C15.5228 20 20 15.5228 20 10C20 4.47715 15.5228 0 10 0C4.47715 0 0 4.47715 0 10C0 15.5228 4.47715 20 10 20ZM10 17C13.866 17 17 13.866 17 10C17 6.13401 13.866 3 10 3C6.13401 3 3 6.13401 3 10C3 13.866 6.13401 17 10 17Z" fill="#fa9392"/></g><rect x="391.82" y="235.09" width="78.36" height="78.36" fill="#f5f5f5"/><g transform="translate(391.82,235.09) scale(3.918) rotate(0)"><path d="M5 0H10L5 5L0 10V5L5 0Z" fill="#f99a98"/><path d="M20 15V20H15L20 15Z" fill="#f99a98"/><path d="M20 5V10L15 15L10 20H5L20 5Z" fill="#f99a98"/><path d="M15 0H20L5 15.0002L0 20.0002V15.0002L15 0Z" fill="#f99a98"/></g><rect x="470.18" y="156.73" width="156.73" height="156.73" fill="#f5f5f5"/><g transform="translate(470.18,156.73) scale(7.836499999999999) rotate(0)"><rect width="20" height="10" fill="#f8b1b0"/></g><rect x="626.91" y="156.73" width="156.73" height="156.73" fill="#f5f5f5"/><g transform="translate(626.91,156.73) scale(7.836499999999999) rotate(0)"><path d="M13 0H20V7L7 20H0V13L13 0Z" fill="#f5f5f5"/></g><rect x="783.64" y="156.73" width="156.73" height="156.73" fill="#f9a9a8"/><g transform="translate(783.64,156.73) scale(7.836499999999999) rotate(0)"><path d="M5 0H10L5 5L0 10V5L5 0Z" fill="#f8afae"/><path d="M20 15V20H15L20 15Z" fill="#f8afae"/><path d="M20 5V10L15 15L10 20H5L20 5Z" fill="#f8afae"/><path d="M15 0H20L5 15.0002L0 20.0002V15.0002L15 0Z" fill="#f8afae"/></g><rect x="940.3636363636363" y="156.72727272727272" width="156.72727272727272" height="156.72727272727272" fill="#F5F5F5"/><rect x="940.36" y="156.73" width="78.36" height="78.36" fill="#fd5754"/><g transform="translate(940.36,156.73) scale(3.918) rotate(0)"><path d="M10 0H20L0 20V10L10 0Z" fill="#f99b99"/><path d="M20 10V20H10L20 10Z" fill="#f99b99"/></g><rect x="1018.73" y="156.73" width="78.36" height="78.36" fill="#f5f5f5"/><g transform="translate(1018.73,156.73) scale(3.918) rotate(0)"><rect width="20" height="10" fill="#f5f5f5"/></g><rect x="940.36" y="235.09" width="78.36" height="78.36" fill="#f5f5f5"/><g transform="translate(940.36,235.09) scale(3.918) rotate(0)"><path d="M5 0H10L5 5L0 10V5L5 0Z" fill="#f5f5f5"/><path d="M20 15V20H15L20 15Z" fill="#f5f5f5"/><path d="M20 5V10L15 15L10 20H5L20 5Z" fill="#f5f5f5"/><path d="M15 0H20L5 15.0002L0 20.0002V15.0002L15 0Z" fill="#f5f5f5"/></g><rect x="1018.73" y="235.09" width="78.36" height="78.36" fill="#f5f5f5"/><g transform="translate(1018.73,235.09) scale(3.918) rotate(0)"><path fill-rule="evenodd" clip-rule="evenodd" d="M10 20C15.5228 20 20 15.5228 20 10C20 4.47715 15.5228 0 10 0C4.47715 0 0 4.47715 0 10C0 15.5228 4.47715 20 10 20ZM10 17C13.866 17 17 13.866 17 10C17 6.13401 13.866 3 10 3C6.13401 3 3 6.13401 3 10C3 13.866 6.13401 17 10 17Z" fill="#fb716e"/></g><rect x="1097.09" y="156.73" width="156.73" height="156.73" fill="#fa8f8d"/><g transform="translate(1097.09,156.73) scale(7.836499999999999) rotate(0)"><path fill-rule="evenodd" clip-rule="evenodd" d="M10 20C15.5228 20 20 15.5228 20 10C20 4.47715 15.5228 0 10 0C4.47715 0 0 4.47715 0 10C0 15.5228 4.47715 20 10 20ZM10 17C13.866 17 17 13.866 17 10C17 6.13401 13.866 3 10 3C6.13401 3 3 6.13401 3 10C3 13.866 6.13401 17 10 17Z" fill="#f6e4e4"/></g><rect x="1253.82" y="156.73" width="156.73" height="156.73" fill="#f5f5f5"/><g transform="translate(1253.82,156.73) scale(7.836499999999999) rotate(0)"><path fill-rule="evenodd" clip-rule="evenodd" d="M10 20C15.5228 20 20 15.5228 20 10C20 4.47715 15.5228 0 10 0C4.47715 0 0 4.47715 0 10C0 15.5228 4.47715 20 10 20ZM10 17C13.866 17 17 13.866 17 10C17 6.13401 13.866 3 10 3C6.13401 3 3 6.13401 3 10C3 13.866 6.13401 17 10 17Z" fill="#f5f5f5"/></g><rect x="1410.55" y="156.73" width="156.73" height="156.73" fill="#f6e5e4"/><g transform="translate(1410.55,156.73) scale(7.836499999999999) rotate(0)"><path d="M13 0H20V7L7 20H0V13L13 0Z" fill="#fc5b58"/></g><rect x="1567.27" y="156.73" width="156.73" height="156.73" fill="#f5f5f5"/><g transform="translate(1567.27,156.73) scale(7.836499999999999) rotate(0)"><path d="M10 0H20L0 20V10L10 0Z" fill="#fb7673"/><path d="M20 10V20H10L20 10Z" fill="#fb7673"/></g><rect x="0" y="313.45" width="156.73" height="156.73" fill="#f5f1f1"/><g transform="translate(0,313.45) scale(7.836499999999999) rotate(0)"><path d="M5 0H10L5 5L0 10V5L5 0Z" fill="#f6d6d5"/><path d="M20 15V20H15L20 15Z" fill="#f6d6d5"/><path d="M20 5V10L15 15L10 20H5L20 5Z" fill="#f6d6d5"/><path d="M15 0H20L5 15.0002L0 20.0002V15.0002L15 0Z" fill="#f6d6d5"/></g><rect x="156.73" y="313.45" width="156.73" height="156.73" fill="#f7d2d1"/><g transform="translate(156.73,313.45) scale(7.836499999999999) rotate(0)"><path d="M10 0H20L0 20V10L10 0Z" fill="#f5f2f2"/><path d="M20 10V20H10L20 10Z" fill="#f5f2f2"/></g><rect x="313.45" y="313.45" width="156.73" height="156.73" fill="#fb7876"/><g transform="translate(313.45,313.45) scale(7.836499999999999) rotate(0)"><path fill-rule="evenodd" clip-rule="evenodd" d="M10 20C15.5228 20 20 15.5228 20 10C20 4.47715 15.5228 0 10 0C4.47715 0 0 4.47715 0 10C0 15.5228 4.47715 20 10 20ZM10 17C13.866 17 17 13.866 17 10C17 6.13401 13.866 3 10 3C6.13401 3 3 6.13401 3 10C3 13.866 6.13401 17 10 17Z" fill="#f5f5f5"/></g><rect x="470.18181818181813" y="313.45454545454544" width="156.72727272727272" height="156.72727272727272" fill="#F5F5F5"/><rect x="470.18" y="313.45" width="78.36" height="78.36" fill="#f5f5f5"/><g transform="translate(470.18,313.45) scale(3.918) rotate(0)"><path d="M10 0H20L0 20V10L10 0Z" fill="#f5f2f2"/><path d="M20 10V20H10L20 10Z" fill="#f5f2f2"/></g><rect x="548.55" y="313.45" width="78.36" height="78.36" fill="#f5f5f5"/><g transform="translate(548.55,313.45) scale(3.918) rotate(0)"><path d="M10 0H20L0 20V10L10 0Z" fill="#f5f5f5"/><path d="M20 10V20H10L20 10Z" fill="#f5f5f5"/></g><rect x="470.18" y="391.82" width="78.36" height="78.36" fill="#f6e9e9"/><g transform="translate(470.18,391.82) scale(3.918) rotate(0)"><path d="M5 0H10L5 5L0 10V5L5 0Z" fill="#f5f5f5"/><path d="M20 15V20H15L20 15Z" fill="#f5f5f5"/><path d="M20 5V10L15 15L10 20H5L20 5Z" fill="#f5f5f5"/><path d="M15 0H20L5 15.0002L0 20.0002V15.0002L15 0Z" fill="#f5f5f5"/></g><rect x="548.55" y="391.82" width="78.36" height="78.36" fill="#fb7e7b"/><g transform="translate(548.55,391.82) scale(3.918) rotate(0)"><path d="M13 0H20V7L7 20H0V13L13 0Z" fill="#fa8c8a"/></g><rect x="626.91" y="313.45" width="156.73" height="156.73" fill="#f5f5f5"/><g transform="translate(626.91,313.45) scale(7.836499999999999) rotate(0)"><rect width="20" height="10" fill="#f6e1e0"/></g><rect x="783.6363636363636" y="313.45454545454544" width="156.72727272727272" height="156.72727272727272" fill="#F5F5F5"/><rect x="783.64" y="313.45" width="78.36" height="78.36" fill="#f5f5f5"/><g transform="translate(783.64,313.45) scale(3.918) rotate(0)"><path d="M13 0H20V7L7 20H0V13L13 0Z" fill="#f5f5f5"/></g><rect x="862" y="313.45" width="78.36" height="78.36" fill="#f9a5a3"/><g transform="translate(862,313.45) scale(3.918) rotate(0)"><path d="M5 0H10L5 5L0 10V5L5 0Z" fill="#f5f5f5"/><path d="M20 15V20H15L20 15Z" fill="#f5f5f5"/><path d="M20 5V10L15 15L10 20H5L20 5Z" fill="#f5f5f5"/><path d="M15 0H20L5 15.0002L0 20.0002V15.0002L15 0Z" fill="#f5f5f5"/></g><rect x="783.64" y="391.82" width="78.36" height="78.36" fill="#f5f5f5"/><g transform="translate(783.64,391.82) scale(3.918) rotate(0)"><path d="M5 0H10L5 5L0 10V5L5 0Z" fill="#f8aead"/><path d="M20 15V20H15L20 15Z" fill="#f8aead"/><path d="M20 5V10L15 15L10 20H5L20 5Z" fill="#f8aead"/><path d="M15 0H20L5 15.0002L0 20.0002V15.0002L15 0Z" fill="#f8aead"/></g><rect x="862" y="391.82" width="78.36" height="78.36" fill="#f5f5f5"/><g transform="translate(862,391.82) scale(3.918) rotate(0)"><path fill-rule="evenodd" clip-rule="evenodd" d="M10 20C15.5228 20 20 15.5228 20 10C20 4.47715 15.5228 0 10 0C4.47715 0 0 4.47715 0 10C0 15.5228 4.47715 20 10 20ZM10 17C13.866 17 17 13.866 17 10C17 6.13401 13.866 3 10 3C6.13401 3 3 6.13401 3 10C3 13.866 6.13401 17 10 17Z" fill="#f7cdcd"/></g><rect x="940.36" y="313.45" width="156.73" height="156.73" fill="#f5f5f5"/><g transform="translate(940.36,313.45) scale(7.836499999999999) rotate(0)"><path fill-rule="evenodd" clip-rule="evenodd" d="M10 20C15.5228 20 20 15.5228 20 10C20 4.47715 15.5228 0 10 0C4.47715 0 0 4.47715 0 10C0 15.5228 4.47715 20 10 20ZM10 17C13.866 17 17 13.866 17 10C17 6.13401 13.866 3 10 3C6.13401 3 3 6.13401 3 10C3 13.866 6.13401 17 10 17Z" fill="#f5f5f5"/></g><rect x="1097.090909090909" y="313.45454545454544" width="156.72727272727272" height="156.72727272727272" fill="#F5F5F5"/><rect x="1097.09" y="313.45" width="78.36" height="78.36" fill="#f8b4b3"/><g transform="translate(1097.09,313.45) scale(3.918) rotate(0)"><path fill-rule="evenodd" clip-rule="evenodd" d="M10 20C15.5228 20 20 15.5228 20 10C20 4.47715 15.5228 0 10 0C4.47715 0 0 4.47715 0 10C0 15.5228 4.47715 20 10 20ZM10 17C13.866 17 17 13.866 17 10C17 6.13401 13.866 3 10 3C6.13401 3 3 6.13401 3 10C3 13.866 6.13401 17 10 17Z" fill="#f5f5f5"/></g><rect x="1175.45" y="313.45" width="78.36" height="78.36" fill="#f5f5f5"/><g transform="translate(1175.45,313.45) scale(3.918) rotate(0)"><path d="M13 0H20V7L7 20H0V13L13 0Z" fill="#f5f5f5"/></g><rect x="1097.09" y="391.82" width="78.36" height="78.36" fill="#f6dcdc"/><g transform="translate(1097.09,391.82) scale(3.918) rotate(0)"><path d="M13 0H20V7L7 20H0V13L13 0Z" fill="#f5f5f5"/></g><rect x="1175.45" y="391.82" width="78.36" height="78.36" fill="#fd514e"/><g transform="translate(1175.45,391.82) scale(3.918) rotate(0)"><rect width="20" height="10" fill="#f5f5f5"/></g><rect x="1253.82" y="313.45" width="156.73" height="156.73" fill="#f5f5f5"/><g transform="translate(1253.82,313.45) scale(7.836499999999999) rotate(0)"><path d="M13 0H20V7L7 20H0V13L13 0Z" fill="#f5ebeb"/></g><rect x="1410.55" y="313.45" width="156.73" height="156.73" fill="#f99c9a"/><g transform="translate(1410.55,313.45) scale(7.836499999999999) rotate(0)"><path d="M13 0H20V7L7 20H0V13L13 0Z" fill="#fd5553"/></g><rect x="1567.27" y="313.45" width="156.73" height="156.73" fill="#f9a6a4"/><g transform="translate(1567.27,313.45) scale(7.836499999999999) rotate(0)"><path fill-rule="evenodd" clip-rule="evenodd" d="M10 20C15.5228 20 20 15.5228 20 10C20 4.47715 15.5228 0 10 0C4.47715 0 0 4.47715 0 10C0 15.5228 4.47715 20 10 20ZM10 17C13.866 17 17 13.866 17 10C17 6.13401 13.866 3 10 3C6.13401 3 3 6.13401 3 10C3 13.866 6.13401 17 10 17Z" fill="#fa8482"/></g></g></svg>