<?xml version="1.0" standalone="no"?><svg xmlns:xlink="http://www.w3.org/1999/xlink" xmlns="http://www.w3.org/2000/svg" viewBox="0 0 1000 538.4644069060671" preserveAspectRatio="xMaxYMax slice"><g transform="scale(0.7457955774322259)" opacity="0.2"><rect x="0" y="0" width="1340.857142857143" height="722" fill="#F5F5F5"/><rect x="0" y="0" width="103.14285714285714" height="103.14285714285714" fill="#F5F5F5"/><rect x="0" y="0" width="51.57" height="51.57" fill="#fc5956"/><g transform="translate(0,0) scale(2.5785) rotate(0)"><path d="M10 0H20L0 20V10L10 0Z" fill="#f5f5f5"/><path d="M20 10V20H10L20 10Z" fill="#f5f5f5"/></g><rect x="51.57" y="0" width="51.57" height="51.57" fill="#f8bebd"/><g transform="translate(51.57,0) scale(2.5785) rotate(0)"><path d="M10 0H20L0 20V10L10 0Z" fill="#fa8381"/><path d="M20 10V20H10L20 10Z" fill="#fa8381"/></g><rect x="0" y="51.57" width="51.57" height="51.57" fill="#f5f5f5"/><g transform="translate(0,51.57) scale(2.5785) rotate(0)"><path d="M5 0H10L5 5L0 10V5L5 0Z" fill="#f5f5f5"/><path d="M20 15V20H15L20 15Z" fill="#f5f5f5"/><path d="M20 5V10L15 15L10 20H5L20 5Z" fill="#f5f5f5"/><path d="M15 0H20L5 15.0002L0 20.0002V15.0002L15 0Z" fill="#f5f5f5"/></g><rect x="51.57" y="51.57" width="51.57" height="51.57" fill="#fd5451"/><g transform="translate(51.57,51.57) scale(2.5785) rotate(0)"><rect width="20" height="10" fill="#f6e5e5"/></g><rect x="103.14" y="0" width="103.14" height="103.14" fill="#f5f5f5"/><g transform="translate(103.14,0) scale(5.157) rotate(0)"><path d="M5 0H10L5 5L0 10V5L5 0Z" fill="#f5f5f5"/><path d="M20 15V20H15L20 15Z" fill="#f5f5f5"/><path d="M20 5V10L15 15L10 20H5L20 5Z" fill="#f5f5f5"/><path d="M15 0H20L5 15.0002L0 20.0002V15.0002L15 0Z" fill="#f5f5f5"/></g><rect x="206.29" y="0" width="103.14" height="103.14" fill="#f9a6a4"/><g transform="translate(206.29,0) scale(5.157) rotate(0)"><rect width="20" height="10" fill="#f5f5f5"/></g><rect x="309.43" y="0" width="103.14" height="103.14" fill="#f5f5f5"/><g transform="translate(309.43,0) scale(5.157) rotate(0)"><path d="M5 0H10L5 5L0 10V5L5 0Z" fill="#f8bdbc"/><path d="M20 15V20H15L20 15Z" fill="#f8bdbc"/><path d="M20 5V10L15 15L10 20H5L20 5Z" fill="#f8bdbc"/><path d="M15 0H20L5 15.0002L0 20.0002V15.0002L15 0Z" fill="#f8bdbc"/></g><rect x="412.57142857142856" y="0" width="103.14285714285714" height="103.14285714285714" fill="#F5F5F5"/><rect x="412.57" y="0" width="51.57" height="51.57" fill="#f9a09f"/><g transform="translate(412.57,0) scale(2.5785) rotate(0)"><rect width="20" height="10" fill="#fd5653"/></g><rect x="464.14" y="0" width="51.57" height="51.57" fill="#fc6563"/><g transform="translate(464.14,0) scale(2.5785) rotate(0)"><path d="M5 0H10L5 5L0 10V5L5 0Z" fill="#f5f5f5"/><path d="M20 15V20H15L20 15Z" fill="#f5f5f5"/><path d="M20 5V10L15 15L10 20H5L20 5Z" fill="#f5f5f5"/><path d="M15 0H20L5 15.0002L0 20.0002V15.0002L15 0Z" fill="#f5f5f5"/></g><rect x="412.57" y="51.57" width="51.57" height="51.57" fill="#f5f5f5"/><g transform="translate(412.57,51.57) scale(2.5785) rotate(0)"><path fill-rule="evenodd" clip-rule="evenodd" d="M10 20C15.5228 20 20 15.5228 20 10C20 4.47715 15.5228 0 10 0C4.47715 0 0 4.47715 0 10C0 15.5228 4.47715 20 10 20ZM10 17C13.866 17 17 13.866 17 10C17 6.13401 13.866 3 10 3C6.13401 3 3 6.13401 3 10C3 13.866 6.13401 17 10 17Z" fill="#f6dada"/></g><rect x="464.14" y="51.57" width="51.57" height="51.57" fill="#f5f5f5"/><g transform="translate(464.14,51.57) scale(2.5785) rotate(0)"><path d="M5 0H10L5 5L0 10V5L5 0Z" fill="#f5f5f5"/><path d="M20 15V20H15L20 15Z" fill="#f5f5f5"/><path d="M20 5V10L15 15L10 20H5L20 5Z" fill="#f5f5f5"/><path d="M15 0H20L5 15.0002L0 20.0002V15.0002L15 0Z" fill="#f5f5f5"/></g><rect x="515.71" y="0" width="103.14" height="103.14" fill="#f8bbba"/><g transform="translate(515.71,0) scale(5.157) rotate(0)"><path d="M10 0H20L0 20V10L10 0Z" fill="#fc6b68"/><path d="M20 10V20H10L20 10Z" fill="#fc6b68"/></g><rect x="618.8571428571429" y="0" width="103.14285714285714" height="103.14285714285714" fill="#F5F5F5"/><rect x="618.86" y="0" width="51.57" height="51.57" fill="#f5f5f5"/><g transform="translate(618.86,0) scale(2.5785) rotate(0)"><path d="M5 0H10L5 5L0 10V5L5 0Z" fill="#f5f5f5"/><path d="M20 15V20H15L20 15Z" fill="#f5f5f5"/><path d="M20 5V10L15 15L10 20H5L20 5Z" fill="#f5f5f5"/><path d="M15 0H20L5 15.0002L0 20.0002V15.0002L15 0Z" fill="#f5f5f5"/></g><rect x="670.43" y="0" width="51.57" height="51.57" fill="#fd4f4c"/><g transform="translate(670.43,0) scale(2.5785) rotate(0)"><rect width="20" height="10" fill="#fc6260"/></g><rect x="618.86" y="51.57" width="51.57" height="51.57" fill="#f5f5f5"/><g transform="translate(618.86,51.57) scale(2.5785) rotate(0)"><path d="M10 0H20L0 20V10L10 0Z" fill="#f5f5f5"/><path d="M20 10V20H10L20 10Z" fill="#f5f5f5"/></g><rect x="670.43" y="51.57" width="51.57" height="51.57" fill="#f5f5f5"/><g transform="translate(670.43,51.57) scale(2.5785) rotate(0)"><path fill-rule="evenodd" clip-rule="evenodd" d="M10 20C15.5228 20 20 15.5228 20 10C20 4.47715 15.5228 0 10 0C4.47715 0 0 4.47715 0 10C0 15.5228 4.47715 20 10 20ZM10 17C13.866 17 17 13.866 17 10C17 6.13401 13.866 3 10 3C6.13401 3 3 6.13401 3 10C3 13.866 6.13401 17 10 17Z" fill="#f9a2a0"/></g><rect x="722" y="0" width="103.14285714285714" height="103.14285714285714" fill="#F5F5F5"/><rect x="722" y="0" width="51.57" height="51.57" fill="#f5f5f5"/><g transform="translate(722,0) scale(2.5785) rotate(0)"><path d="M10 0H20L0 20V10L10 0Z" fill="#f7c7c7"/><path d="M20 10V20H10L20 10Z" fill="#f7c7c7"/></g><rect x="773.57" y="0" width="51.57" height="51.57" fill="#f6e9e9"/><g transform="translate(773.57,0) scale(2.5785) rotate(0)"><path d="M10 0H20L0 20V10L10 0Z" fill="#f8afae"/><path d="M20 10V20H10L20 10Z" fill="#f8afae"/></g><rect x="722" y="51.57" width="51.57" height="51.57" fill="#f6eaea"/><g transform="translate(722,51.57) scale(2.5785) rotate(0)"><path fill-rule="evenodd" clip-rule="evenodd" d="M10 20C15.5228 20 20 15.5228 20 10C20 4.47715 15.5228 0 10 0C4.47715 0 0 4.47715 0 10C0 15.5228 4.47715 20 10 20ZM10 17C13.866 17 17 13.866 17 10C17 6.13401 13.866 3 10 3C6.13401 3 3 6.13401 3 10C3 13.866 6.13401 17 10 17Z" fill="#f5f5f5"/></g><rect x="773.57" y="51.57" width="51.57" height="51.57" fill="#fc6361"/><g transform="translate(773.57,51.57) scale(2.5785) rotate(0)"><rect width="20" height="10" fill="#f5f5f5"/></g><rect x="825.14" y="0" width="103.14" height="103.14" fill="#f5f5f5"/><g transform="translate(825.14,0) scale(5.157) rotate(0)"><rect width="20" height="10" fill="#f6dada"/></g><rect x="928.2857142857142" y="0" width="103.14285714285714" height="103.14285714285714" fill="#F5F5F5"/><rect x="928.29" y="0" width="51.57" height="51.57" fill="#f99e9d"/><g transform="translate(928.29,0) scale(2.5785) rotate(0)"><path fill-rule="evenodd" clip-rule="evenodd" d="M10 20C15.5228 20 20 15.5228 20 10C20 4.47715 15.5228 0 10 0C4.47715 0 0 4.47715 0 10C0 15.5228 4.47715 20 10 20ZM10 17C13.866 17 17 13.866 17 10C17 6.13401 13.866 3 10 3C6.13401 3 3 6.13401 3 10C3 13.866 6.13401 17 10 17Z" fill="#f5f5f5"/></g><rect x="979.86" y="0" width="51.57" height="51.57" fill="#f5f5f5"/><g transform="translate(979.86,0) scale(2.5785) rotate(0)"><path d="M5 0H10L5 5L0 10V5L5 0Z" fill="#f5f5f5"/><path d="M20 15V20H15L20 15Z" fill="#f5f5f5"/><path d="M20 5V10L15 15L10 20H5L20 5Z" fill="#f5f5f5"/><path d="M15 0H20L5 15.0002L0 20.0002V15.0002L15 0Z" fill="#f5f5f5"/></g><rect x="928.29" y="51.57" width="51.57" height="51.57" fill="#f5eded"/><g transform="translate(928.29,51.57) scale(2.5785) rotate(0)"><rect width="20" height="10" fill="#f9a5a3"/></g><rect x="979.86" y="51.57" width="51.57" height="51.57" fill="#f99d9c"/><g transform="translate(979.86,51.57) scale(2.5785) rotate(0)"><path d="M5 0H10L5 5L0 10V5L5 0Z" fill="#fb817f"/><path d="M20 15V20H15L20 15Z" fill="#fb817f"/><path d="M20 5V10L15 15L10 20H5L20 5Z" fill="#fb817f"/><path d="M15 0H20L5 15.0002L0 20.0002V15.0002L15 0Z" fill="#fb817f"/></g><rect x="1031.4285714285713" y="0" width="103.14285714285714" height="103.14285714285714" fill="#F5F5F5"/><rect x="1031.43" y="0" width="51.57" height="51.57" fill="#fc6361"/><g transform="translate(1031.43,0) scale(2.5785) rotate(0)"><path d="M5 0H10L5 5L0 10V5L5 0Z" fill="#f5f5f5"/><path d="M20 15V20H15L20 15Z" fill="#f5f5f5"/><path d="M20 5V10L15 15L10 20H5L20 5Z" fill="#f5f5f5"/><path d="M15 0H20L5 15.0002L0 20.0002V15.0002L15 0Z" fill="#f5f5f5"/></g><rect x="1083" y="0" width="51.57" height="51.57" fill="#f5f1f1"/><g transform="translate(1083,0) scale(2.5785) rotate(0)"><rect width="20" height="10" fill="#fc5f5d"/></g><rect x="1031.43" y="51.57" width="51.57" height="51.57" fill="#f5f5f5"/><g transform="translate(1031.43,51.57) scale(2.5785) rotate(0)"><path d="M10 0H20L0 20V10L10 0Z" fill="#f5f5f5"/><path d="M20 10V20H10L20 10Z" fill="#f5f5f5"/></g><rect x="1083" y="51.57" width="51.57" height="51.57" fill="#fa8c8a"/><g transform="translate(1083,51.57) scale(2.5785) rotate(0)"><rect width="20" height="10" fill="#f5f5f5"/></g><rect x="1134.5714285714284" y="0" width="103.14285714285714" height="103.14285714285714" fill="#F5F5F5"/><rect x="1134.57" y="0" width="51.57" height="51.57" fill="#f9a09e"/><g transform="translate(1134.57,0) scale(2.5785) rotate(0)"><path d="M5 0H10L5 5L0 10V5L5 0Z" fill="#fd524f"/><path d="M20 15V20H15L20 15Z" fill="#fd524f"/><path d="M20 5V10L15 15L10 20H5L20 5Z" fill="#fd524f"/><path d="M15 0H20L5 15.0002L0 20.0002V15.0002L15 0Z" fill="#fd524f"/></g><rect x="1186.14" y="0" width="51.57" height="51.57" fill="#f5f5f5"/><g transform="translate(1186.14,0) scale(2.5785) rotate(0)"><rect width="20" height="10" fill="#f6e5e5"/></g><rect x="1134.57" y="51.57" width="51.57" height="51.57" fill="#f6dddd"/><g transform="translate(1134.57,51.57) scale(2.5785) rotate(0)"><path d="M10 0H20L0 20V10L10 0Z" fill="#f5ebeb"/><path d="M20 10V20H10L20 10Z" fill="#f5ebeb"/></g><rect x="1186.14" y="51.57" width="51.57" height="51.57" fill="#f5f5f5"/><g transform="translate(1186.14,51.57) scale(2.5785) rotate(0)"><path d="M10 0H20L0 20V10L10 0Z" fill="#f5f5f5"/><path d="M20 10V20H10L20 10Z" fill="#f5f5f5"/></g><rect x="1237.71" y="0" width="103.14" height="103.14" fill="#f5f5f5"/><g transform="translate(1237.71,0) scale(5.157) rotate(0)"><rect width="20" height="10" fill="#f5f5f5"/></g><rect x="0" y="103.14" width="103.14" height="103.14" fill="#f99f9d"/><g transform="translate(0,103.14) scale(5.157) rotate(0)"><path d="M5 0H10L5 5L0 10V5L5 0Z" fill="#f8bab9"/><path d="M20 15V20H15L20 15Z" fill="#f8bab9"/><path d="M20 5V10L15 15L10 20H5L20 5Z" fill="#f8bab9"/><path d="M15 0H20L5 15.0002L0 20.0002V15.0002L15 0Z" fill="#f8bab9"/></g><rect x="103.14" y="103.14" width="103.14" height="103.14" fill="#f7cbca"/><g transform="translate(103.14,103.14) scale(5.157) rotate(0)"><path d="M5 0H10L5 5L0 10V5L5 0Z" fill="#fc5e5b"/><path d="M20 15V20H15L20 15Z" fill="#fc5e5b"/><path d="M20 5V10L15 15L10 20H5L20 5Z" fill="#fc5e5b"/><path d="M15 0H20L5 15.0002L0 20.0002V15.0002L15 0Z" fill="#fc5e5b"/></g><rect x="206.28571428571428" y="103.14285714285714" width="103.14285714285714" height="103.14285714285714" fill="#F5F5F5"/><rect x="206.29" y="103.14" width="51.57" height="51.57" fill="#f5f5f5"/><g transform="translate(206.29,103.14) scale(2.5785) rotate(0)"><path d="M10 0H20L0 20V10L10 0Z" fill="#f5f5f5"/><path d="M20 10V20H10L20 10Z" fill="#f5f5f5"/></g><rect x="257.86" y="103.14" width="51.57" height="51.57" fill="#f7cac9"/><g transform="translate(257.86,103.14) scale(2.5785) rotate(0)"><rect width="20" height="10" fill="#fb7270"/></g><rect x="206.29" y="154.71" width="51.57" height="51.57" fill="#f5f5f5"/><g transform="translate(206.29,154.71) scale(2.5785) rotate(0)"><path d="M5 0H10L5 5L0 10V5L5 0Z" fill="#f5f5f5"/><path d="M20 15V20H15L20 15Z" fill="#f5f5f5"/><path d="M20 5V10L15 15L10 20H5L20 5Z" fill="#f5f5f5"/><path d="M15 0H20L5 15.0002L0 20.0002V15.0002L15 0Z" fill="#f5f5f5"/></g><rect x="257.86" y="154.71" width="51.57" height="51.57" fill="#f7c6c6"/><g transform="translate(257.86,154.71) scale(2.5785) rotate(0)"><path d="M5 0H10L5 5L0 10V5L5 0Z" fill="#f5f5f5"/><path d="M20 15V20H15L20 15Z" fill="#f5f5f5"/><path d="M20 5V10L15 15L10 20H5L20 5Z" fill="#f5f5f5"/><path d="M15 0H20L5 15.0002L0 20.0002V15.0002L15 0Z" fill="#f5f5f5"/></g><rect x="309.42857142857144" y="103.14285714285714" width="103.14285714285714" height="103.14285714285714" fill="#F5F5F5"/><rect x="309.43" y="103.14" width="51.57" height="51.57" fill="#f9a6a4"/><g transform="translate(309.43,103.14) scale(2.5785) rotate(0)"><path fill-rule="evenodd" clip-rule="evenodd" d="M10 20C15.5228 20 20 15.5228 20 10C20 4.47715 15.5228 0 10 0C4.47715 0 0 4.47715 0 10C0 15.5228 4.47715 20 10 20ZM10 17C13.866 17 17 13.866 17 10C17 6.13401 13.866 3 10 3C6.13401 3 3 6.13401 3 10C3 13.866 6.13401 17 10 17Z" fill="#f5f5f5"/></g><rect x="361" y="103.14" width="51.57" height="51.57" fill="#fb6e6b"/><g transform="translate(361,103.14) scale(2.5785) rotate(0)"><path fill-rule="evenodd" clip-rule="evenodd" d="M10 20C15.5228 20 20 15.5228 20 10C20 4.47715 15.5228 0 10 0C4.47715 0 0 4.47715 0 10C0 15.5228 4.47715 20 10 20ZM10 17C13.866 17 17 13.866 17 10C17 6.13401 13.866 3 10 3C6.13401 3 3 6.13401 3 10C3 13.866 6.13401 17 10 17Z" fill="#fc5f5c"/></g><rect x="309.43" y="154.71" width="51.57" height="51.57" fill="#f5f5f5"/><g transform="translate(309.43,154.71) scale(2.5785) rotate(0)"><path d="M10 0H20L0 20V10L10 0Z" fill="#f9a19f"/><path d="M20 10V20H10L20 10Z" fill="#f9a19f"/></g><rect x="361" y="154.71" width="51.57" height="51.57" fill="#fb7774"/><g transform="translate(361,154.71) scale(2.5785) rotate(0)"><path d="M5 0H10L5 5L0 10V5L5 0Z" fill="#f9a3a1"/><path d="M20 15V20H15L20 15Z" fill="#f9a3a1"/><path d="M20 5V10L15 15L10 20H5L20 5Z" fill="#f9a3a1"/><path d="M15 0H20L5 15.0002L0 20.0002V15.0002L15 0Z" fill="#f9a3a1"/></g><rect x="412.57142857142856" y="103.14285714285714" width="103.14285714285714" height="103.14285714285714" fill="#F5F5F5"/><rect x="412.57" y="103.14" width="51.57" height="51.57" fill="#fb7472"/><g transform="translate(412.57,103.14) scale(2.5785) rotate(0)"><path fill-rule="evenodd" clip-rule="evenodd" d="M10 20C15.5228 20 20 15.5228 20 10C20 4.47715 15.5228 0 10 0C4.47715 0 0 4.47715 0 10C0 15.5228 4.47715 20 10 20ZM10 17C13.866 17 17 13.866 17 10C17 6.13401 13.866 3 10 3C6.13401 3 3 6.13401 3 10C3 13.866 6.13401 17 10 17Z" fill="#f9a5a4"/></g><rect x="464.14" y="103.14" width="51.57" height="51.57" fill="#f5f5f5"/><g transform="translate(464.14,103.14) scale(2.5785) rotate(0)"><path d="M5 0H10L5 5L0 10V5L5 0Z" fill="#f9a2a0"/><path d="M20 15V20H15L20 15Z" fill="#f9a2a0"/><path d="M20 5V10L15 15L10 20H5L20 5Z" fill="#f9a2a0"/><path d="M15 0H20L5 15.0002L0 20.0002V15.0002L15 0Z" fill="#f9a2a0"/></g><rect x="412.57" y="154.71" width="51.57" height="51.57" fill="#fa9593"/><g transform="translate(412.57,154.71) scale(2.5785) rotate(0)"><path d="M5 0H10L5 5L0 10V5L5 0Z" fill="#f5f5f5"/><path d="M20 15V20H15L20 15Z" fill="#f5f5f5"/><path d="M20 5V10L15 15L10 20H5L20 5Z" fill="#f5f5f5"/><path d="M15 0H20L5 15.0002L0 20.0002V15.0002L15 0Z" fill="#f5f5f5"/></g><rect x="464.14" y="154.71" width="51.57" height="51.57" fill="#fb706e"/><g transform="translate(464.14,154.71) scale(2.5785) rotate(0)"><path d="M10 0H20L0 20V10L10 0Z" fill="#f6d8d7"/><path d="M20 10V20H10L20 10Z" fill="#f6d8d7"/></g><rect x="515.71" y="103.14" width="103.14" height="103.14" fill="#f5f5f5"/><g transform="translate(515.71,103.14) scale(5.157) rotate(0)"><rect width="20" height="10" fill="#f5f5f5"/></g><rect x="618.8571428571429" y="103.14285714285714" width="103.14285714285714" height="103.14285714285714" fill="#F5F5F5"/><rect x="618.86" y="103.14" width="51.57" height="51.57" fill="#f5f5f5"/><g transform="translate(618.86,103.14) scale(2.5785) rotate(0)"><path d="M5 0H10L5 5L0 10V5L5 0Z" fill="#f6eaea"/><path d="M20 15V20H15L20 15Z" fill="#f6eaea"/><path d="M20 5V10L15 15L10 20H5L20 5Z" fill="#f6eaea"/><path d="M15 0H20L5 15.0002L0 20.0002V15.0002L15 0Z" fill="#f6eaea"/></g><rect x="670.43" y="103.14" width="51.57" height="51.57" fill="#f5f5f5"/><g transform="translate(670.43,103.14) scale(2.5785) rotate(0)"><path fill-rule="evenodd" clip-rule="evenodd" d="M10 20C15.5228 20 20 15.5228 20 10C20 4.47715 15.5228 0 10 0C4.47715 0 0 4.47715 0 10C0 15.5228 4.47715 20 10 20ZM10 17C13.866 17 17 13.866 17 10C17 6.13401 13.866 3 10 3C6.13401 3 3 6.13401 3 10C3 13.866 6.13401 17 10 17Z" fill="#f7c1c0"/></g><rect x="618.86" y="154.71" width="51.57" height="51.57" fill="#f7cece"/><g transform="translate(618.86,154.71) scale(2.5785) rotate(0)"><rect width="20" height="10" fill="#f7d5d4"/></g><rect x="670.43" y="154.71" width="51.57" height="51.57" fill="#f5f5f5"/><g transform="translate(670.43,154.71) scale(2.5785) rotate(0)"><path fill-rule="evenodd" clip-rule="evenodd" d="M10 20C15.5228 20 20 15.5228 20 10C20 4.47715 15.5228 0 10 0C4.47715 0 0 4.47715 0 10C0 15.5228 4.47715 20 10 20ZM10 17C13.866 17 17 13.866 17 10C17 6.13401 13.866 3 10 3C6.13401 3 3 6.13401 3 10C3 13.866 6.13401 17 10 17Z" fill="#f99997"/></g><rect x="722" y="103.14285714285714" width="103.14285714285714" height="103.14285714285714" fill="#F5F5F5"/><rect x="722" y="103.14" width="51.57" height="51.57" fill="#f5f5f5"/><g transform="translate(722,103.14) scale(2.5785) rotate(0)"><path fill-rule="evenodd" clip-rule="evenodd" d="M10 20C15.5228 20 20 15.5228 20 10C20 4.47715 15.5228 0 10 0C4.47715 0 0 4.47715 0 10C0 15.5228 4.47715 20 10 20ZM10 17C13.866 17 17 13.866 17 10C17 6.13401 13.866 3 10 3C6.13401 3 3 6.13401 3 10C3 13.866 6.13401 17 10 17Z" fill="#f5f5f5"/></g><rect x="773.57" y="103.14" width="51.57" height="51.57" fill="#f5f5f5"/><g transform="translate(773.57,103.14) scale(2.5785) rotate(0)"><path fill-rule="evenodd" clip-rule="evenodd" d="M10 20C15.5228 20 20 15.5228 20 10C20 4.47715 15.5228 0 10 0C4.47715 0 0 4.47715 0 10C0 15.5228 4.47715 20 10 20ZM10 17C13.866 17 17 13.866 17 10C17 6.13401 13.866 3 10 3C6.13401 3 3 6.13401 3 10C3 13.866 6.13401 17 10 17Z" fill="#f8c0bf"/></g><rect x="722" y="154.71" width="51.57" height="51.57" fill="#f9a2a1"/><g transform="translate(722,154.71) scale(2.5785) rotate(0)"><path d="M5 0H10L5 5L0 10V5L5 0Z" fill="#fb7977"/><path d="M20 15V20H15L20 15Z" fill="#fb7977"/><path d="M20 5V10L15 15L10 20H5L20 5Z" fill="#fb7977"/><path d="M15 0H20L5 15.0002L0 20.0002V15.0002L15 0Z" fill="#fb7977"/></g><rect x="773.57" y="154.71" width="51.57" height="51.57" fill="#f9a09f"/><g transform="translate(773.57,154.71) scale(2.5785) rotate(0)"><path d="M10 0H20L0 20V10L10 0Z" fill="#f8b4b3"/><path d="M20 10V20H10L20 10Z" fill="#f8b4b3"/></g><rect x="825.1428571428571" y="103.14285714285714" width="103.14285714285714" height="103.14285714285714" fill="#F5F5F5"/><rect x="825.14" y="103.14" width="51.57" height="51.57" fill="#f8bdbc"/><g transform="translate(825.14,103.14) scale(2.5785) rotate(0)"><path d="M10 0H20L0 20V10L10 0Z" fill="#f5f5f5"/><path d="M20 10V20H10L20 10Z" fill="#f5f5f5"/></g><rect x="876.71" y="103.14" width="51.57" height="51.57" fill="#f5f5f5"/><g transform="translate(876.71,103.14) scale(2.5785) rotate(0)"><rect width="20" height="10" fill="#fc5f5c"/></g><rect x="825.14" y="154.71" width="51.57" height="51.57" fill="#f5f5f5"/><g transform="translate(825.14,154.71) scale(2.5785) rotate(0)"><path d="M5 0H10L5 5L0 10V5L5 0Z" fill="#fb7e7c"/><path d="M20 15V20H15L20 15Z" fill="#fb7e7c"/><path d="M20 5V10L15 15L10 20H5L20 5Z" fill="#fb7e7c"/><path d="M15 0H20L5 15.0002L0 20.0002V15.0002L15 0Z" fill="#fb7e7c"/></g><rect x="876.71" y="154.71" width="51.57" height="51.57" fill="#f6d6d6"/><g transform="translate(876.71,154.71) scale(2.5785) rotate(0)"><path d="M5 0H10L5 5L0 10V5L5 0Z" fill="#f8adac"/><path d="M20 15V20H15L20 15Z" fill="#f8adac"/><path d="M20 5V10L15 15L10 20H5L20 5Z" fill="#f8adac"/><path d="M15 0H20L5 15.0002L0 20.0002V15.0002L15 0Z" fill="#f8adac"/></g><rect x="928.29" y="103.14" width="103.14" height="103.14" fill="#f7d5d4"/><g transform="translate(928.29,103.14) scale(5.157) rotate(0)"><rect width="20" height="10" fill="#f6dada"/></g><rect x="1031.43" y="103.14" width="103.14" height="103.14" fill="#fc5f5c"/><g transform="translate(1031.43,103.14) scale(5.157) rotate(0)"><path d="M10 0H20L0 20V10L10 0Z" fill="#fc6360"/><path d="M20 10V20H10L20 10Z" fill="#fc6360"/></g><rect x="1134.5714285714284" y="103.14285714285714" width="103.14285714285714" height="103.14285714285714" fill="#F5F5F5"/><rect x="1134.57" y="103.14" width="51.57" height="51.57" fill="#f5f5f5"/><g transform="translate(1134.57,103.14) scale(2.5785) rotate(0)"><path fill-rule="evenodd" clip-rule="evenodd" d="M10 20C15.5228 20 20 15.5228 20 10C20 4.47715 15.5228 0 10 0C4.47715 0 0 4.47715 0 10C0 15.5228 4.47715 20 10 20ZM10 17C13.866 17 17 13.866 17 10C17 6.13401 13.866 3 10 3C6.13401 3 3 6.13401 3 10C3 13.866 6.13401 17 10 17Z" fill="#f5f5f5"/></g><rect x="1186.14" y="103.14" width="51.57" height="51.57" fill="#f5f5f5"/><g transform="translate(1186.14,103.14) scale(2.5785) rotate(0)"><path fill-rule="evenodd" clip-rule="evenodd" d="M10 20C15.5228 20 20 15.5228 20 10C20 4.47715 15.5228 0 10 0C4.47715 0 0 4.47715 0 10C0 15.5228 4.47715 20 10 20ZM10 17C13.866 17 17 13.866 17 10C17 6.13401 13.866 3 10 3C6.13401 3 3 6.13401 3 10C3 13.866 6.13401 17 10 17Z" fill="#f5f5f5"/></g><rect x="1134.57" y="154.71" width="51.57" height="51.57" fill="#fb817e"/><g transform="translate(1134.57,154.71) scale(2.5785) rotate(0)"><path d="M10 0H20L0 20V10L10 0Z" fill="#f5f5f5"/><path d="M20 10V20H10L20 10Z" fill="#f5f5f5"/></g><rect x="1186.14" y="154.71" width="51.57" height="51.57" fill="#fb7674"/><g transform="translate(1186.14,154.71) scale(2.5785) rotate(0)"><path fill-rule="evenodd" clip-rule="evenodd" d="M10 20C15.5228 20 20 15.5228 20 10C20 4.47715 15.5228 0 10 0C4.47715 0 0 4.47715 0 10C0 15.5228 4.47715 20 10 20ZM10 17C13.866 17 17 13.866 17 10C17 6.13401 13.866 3 10 3C6.13401 3 3 6.13401 3 10C3 13.866 6.13401 17 10 17Z" fill="#f5f5f5"/></g><rect x="1237.7142857142858" y="103.14285714285714" width="103.14285714285714" height="103.14285714285714" fill="#F5F5F5"/><rect x="1237.71" y="103.14" width="51.57" height="51.57" fill="#f5f5f5"/><g transform="translate(1237.71,103.14) scale(2.5785) rotate(0)"><rect width="20" height="10" fill="#f5f5f5"/></g><rect x="1289.29" y="103.14" width="51.57" height="51.57" fill="#f9abaa"/><g transform="translate(1289.29,103.14) scale(2.5785) rotate(0)"><path d="M10 0H20L0 20V10L10 0Z" fill="#f5f5f5"/><path d="M20 10V20H10L20 10Z" fill="#f5f5f5"/></g><rect x="1237.71" y="154.71" width="51.57" height="51.57" fill="#f5f5f5"/><g transform="translate(1237.71,154.71) scale(2.5785) rotate(0)"><path fill-rule="evenodd" clip-rule="evenodd" d="M10 20C15.5228 20 20 15.5228 20 10C20 4.47715 15.5228 0 10 0C4.47715 0 0 4.47715 0 10C0 15.5228 4.47715 20 10 20ZM10 17C13.866 17 17 13.866 17 10C17 6.13401 13.866 3 10 3C6.13401 3 3 6.13401 3 10C3 13.866 6.13401 17 10 17Z" fill="#f5f5f5"/></g><rect x="1289.29" y="154.71" width="51.57" height="51.57" fill="#fa8280"/><g transform="translate(1289.29,154.71) scale(2.5785) rotate(0)"><path d="M5 0H10L5 5L0 10V5L5 0Z" fill="#fc5c59"/><path d="M20 15V20H15L20 15Z" fill="#fc5c59"/><path d="M20 5V10L15 15L10 20H5L20 5Z" fill="#fc5c59"/><path d="M15 0H20L5 15.0002L0 20.0002V15.0002L15 0Z" fill="#fc5c59"/></g><rect x="0" y="206.28571428571428" width="103.14285714285714" height="103.14285714285714" fill="#F5F5F5"/><rect x="0" y="206.29" width="51.57" height="51.57" fill="#f5f5f5"/><g transform="translate(0,206.29) scale(2.5785) rotate(0)"><rect width="20" height="10" fill="#f5f2f2"/></g><rect x="51.57" y="206.29" width="51.57" height="51.57" fill="#f8b6b5"/><g transform="translate(51.57,206.29) scale(2.5785) rotate(0)"><path d="M5 0H10L5 5L0 10V5L5 0Z" fill="#f5f5f5"/><path d="M20 15V20H15L20 15Z" fill="#f5f5f5"/><path d="M20 5V10L15 15L10 20H5L20 5Z" fill="#f5f5f5"/><path d="M15 0H20L5 15.0002L0 20.0002V15.0002L15 0Z" fill="#f5f5f5"/></g><rect x="0" y="257.86" width="51.57" height="51.57" fill="#fd5451"/><g transform="translate(0,257.86) scale(2.5785) rotate(0)"><path fill-rule="evenodd" clip-rule="evenodd" d="M10 20C15.5228 20 20 15.5228 20 10C20 4.47715 15.5228 0 10 0C4.47715 0 0 4.47715 0 10C0 15.5228 4.47715 20 10 20ZM10 17C13.866 17 17 13.866 17 10C17 6.13401 13.866 3 10 3C6.13401 3 3 6.13401 3 10C3 13.866 6.13401 17 10 17Z" fill="#fc6462"/></g><rect x="51.57" y="257.86" width="51.57" height="51.57" fill="#f5ebea"/><g transform="translate(51.57,257.86) scale(2.5785) rotate(0)"><rect width="20" height="10" fill="#f5f5f5"/></g><rect x="103.14285714285714" y="206.28571428571428" width="103.14285714285714" height="103.14285714285714" fill="#F5F5F5"/><rect x="103.14" y="206.29" width="51.57" height="51.57" fill="#f6d9d8"/><g transform="translate(103.14,206.29) scale(2.5785) rotate(0)"><path d="M10 0H20L0 20V10L10 0Z" fill="#f6e1e0"/><path d="M20 10V20H10L20 10Z" fill="#f6e1e0"/></g><rect x="154.71" y="206.29" width="51.57" height="51.57" fill="#f8b5b4"/><g transform="translate(154.71,206.29) scale(2.5785) rotate(0)"><path fill-rule="evenodd" clip-rule="evenodd" d="M10 20C15.5228 20 20 15.5228 20 10C20 4.47715 15.5228 0 10 0C4.47715 0 0 4.47715 0 10C0 15.5228 4.47715 20 10 20ZM10 17C13.866 17 17 13.866 17 10C17 6.13401 13.866 3 10 3C6.13401 3 3 6.13401 3 10C3 13.866 6.13401 17 10 17Z" fill="#fd5754"/></g><rect x="103.14" y="257.86" width="51.57" height="51.57" fill="#f5f5f5"/><g transform="translate(103.14,257.86) scale(2.5785) rotate(0)"><path d="M5 0H10L5 5L0 10V5L5 0Z" fill="#fb7b79"/><path d="M20 15V20H15L20 15Z" fill="#fb7b79"/><path d="M20 5V10L15 15L10 20H5L20 5Z" fill="#fb7b79"/><path d="M15 0H20L5 15.0002L0 20.0002V15.0002L15 0Z" fill="#fb7b79"/></g><rect x="154.71" y="257.86" width="51.57" height="51.57" fill="#f9abaa"/><g transform="translate(154.71,257.86) scale(2.5785) rotate(0)"><path d="M5 0H10L5 5L0 10V5L5 0Z" fill="#f5f5f5"/><path d="M20 15V20H15L20 15Z" fill="#f5f5f5"/><path d="M20 5V10L15 15L10 20H5L20 5Z" fill="#f5f5f5"/><path d="M15 0H20L5 15.0002L0 20.0002V15.0002L15 0Z" fill="#f5f5f5"/></g><rect x="206.28571428571428" y="206.28571428571428" width="103.14285714285714" height="103.14285714285714" fill="#F5F5F5"/><rect x="206.29" y="206.29" width="51.57" height="51.57" fill="#f6e3e2"/><g transform="translate(206.29,206.29) scale(2.5785) rotate(0)"><path d="M10 0H20L0 20V10L10 0Z" fill="#fc6c69"/><path d="M20 10V20H10L20 10Z" fill="#fc6c69"/></g><rect x="257.86" y="206.29" width="51.57" height="51.57" fill="#f7c3c2"/><g transform="translate(257.86,206.29) scale(2.5785) rotate(0)"><path fill-rule="evenodd" clip-rule="evenodd" d="M10 20C15.5228 20 20 15.5228 20 10C20 4.47715 15.5228 0 10 0C4.47715 0 0 4.47715 0 10C0 15.5228 4.47715 20 10 20ZM10 17C13.866 17 17 13.866 17 10C17 6.13401 13.866 3 10 3C6.13401 3 3 6.13401 3 10C3 13.866 6.13401 17 10 17Z" fill="#f9a7a6"/></g><rect x="206.29" y="257.86" width="51.57" height="51.57" fill="#f6e0e0"/><g transform="translate(206.29,257.86) scale(2.5785) rotate(0)"><path d="M5 0H10L5 5L0 10V5L5 0Z" fill="#f7cecd"/><path d="M20 15V20H15L20 15Z" fill="#f7cecd"/><path d="M20 5V10L15 15L10 20H5L20 5Z" fill="#f7cecd"/><path d="M15 0H20L5 15.0002L0 20.0002V15.0002L15 0Z" fill="#f7cecd"/></g><rect x="257.86" y="257.86" width="51.57" height="51.57" fill="#fb6f6d"/><g transform="translate(257.86,257.86) scale(2.5785) rotate(0)"><path d="M10 0H20L0 20V10L10 0Z" fill="#f5f5f5"/><path d="M20 10V20H10L20 10Z" fill="#f5f5f5"/></g><rect x="309.42857142857144" y="206.28571428571428" width="103.14285714285714" height="103.14285714285714" fill="#F5F5F5"/><rect x="309.43" y="206.29" width="51.57" height="51.57" fill="#f5f5f5"/><g transform="translate(309.43,206.29) scale(2.5785) rotate(0)"><path d="M5 0H10L5 5L0 10V5L5 0Z" fill="#fb6e6c"/><path d="M20 15V20H15L20 15Z" fill="#fb6e6c"/><path d="M20 5V10L15 15L10 20H5L20 5Z" fill="#fb6e6c"/><path d="M15 0H20L5 15.0002L0 20.0002V15.0002L15 0Z" fill="#fb6e6c"/></g><rect x="361" y="206.29" width="51.57" height="51.57" fill="#f6e8e8"/><g transform="translate(361,206.29) scale(2.5785) rotate(0)"><path d="M5 0H10L5 5L0 10V5L5 0Z" fill="#f7c2c1"/><path d="M20 15V20H15L20 15Z" fill="#f7c2c1"/><path d="M20 5V10L15 15L10 20H5L20 5Z" fill="#f7c2c1"/><path d="M15 0H20L5 15.0002L0 20.0002V15.0002L15 0Z" fill="#f7c2c1"/></g><rect x="309.43" y="257.86" width="51.57" height="51.57" fill="#fa9493"/><g transform="translate(309.43,257.86) scale(2.5785) rotate(0)"><path d="M5 0H10L5 5L0 10V5L5 0Z" fill="#f99c9a"/><path d="M20 15V20H15L20 15Z" fill="#f99c9a"/><path d="M20 5V10L15 15L10 20H5L20 5Z" fill="#f99c9a"/><path d="M15 0H20L5 15.0002L0 20.0002V15.0002L15 0Z" fill="#f99c9a"/></g><rect x="361" y="257.86" width="51.57" height="51.57" fill="#f5f5f5"/><g transform="translate(361,257.86) scale(2.5785) rotate(0)"><path d="M10 0H20L0 20V10L10 0Z" fill="#f5f5f5"/><path d="M20 10V20H10L20 10Z" fill="#f5f5f5"/></g><rect x="412.57" y="206.29" width="103.14" height="103.14" fill="#f5f5f5"/><g transform="translate(412.57,206.29) scale(5.157) rotate(0)"><path d="M5 0H10L5 5L0 10V5L5 0Z" fill="#f8b4b3"/><path d="M20 15V20H15L20 15Z" fill="#f8b4b3"/><path d="M20 5V10L15 15L10 20H5L20 5Z" fill="#f8b4b3"/><path d="M15 0H20L5 15.0002L0 20.0002V15.0002L15 0Z" fill="#f8b4b3"/></g><rect x="515.7142857142857" y="206.28571428571428" width="103.14285714285714" height="103.14285714285714" fill="#F5F5F5"/><rect x="515.71" y="206.29" width="51.57" height="51.57" fill="#f8bebd"/><g transform="translate(515.71,206.29) scale(2.5785) rotate(0)"><path d="M10 0H20L0 20V10L10 0Z" fill="#fa9391"/><path d="M20 10V20H10L20 10Z" fill="#fa9391"/></g><rect x="567.29" y="206.29" width="51.57" height="51.57" fill="#f5f5f5"/><g transform="translate(567.29,206.29) scale(2.5785) rotate(0)"><rect width="20" height="10" fill="#f6dddd"/></g><rect x="515.71" y="257.86" width="51.57" height="51.57" fill="#f5f5f5"/><g transform="translate(515.71,257.86) scale(2.5785) rotate(0)"><rect width="20" height="10" fill="#fb7d7b"/></g><rect x="567.29" y="257.86" width="51.57" height="51.57" fill="#f5f5f5"/><g transform="translate(567.29,257.86) scale(2.5785) rotate(0)"><rect width="20" height="10" fill="#f5f5f5"/></g><rect x="618.86" y="206.29" width="103.14" height="103.14" fill="#f99d9b"/><g transform="translate(618.86,206.29) scale(5.157) rotate(0)"><path fill-rule="evenodd" clip-rule="evenodd" d="M10 20C15.5228 20 20 15.5228 20 10C20 4.47715 15.5228 0 10 0C4.47715 0 0 4.47715 0 10C0 15.5228 4.47715 20 10 20ZM10 17C13.866 17 17 13.866 17 10C17 6.13401 13.866 3 10 3C6.13401 3 3 6.13401 3 10C3 13.866 6.13401 17 10 17Z" fill="#f9a7a6"/></g><rect x="722" y="206.28571428571428" width="103.14285714285714" height="103.14285714285714" fill="#F5F5F5"/><rect x="722" y="206.29" width="51.57" height="51.57" fill="#f5f5f5"/><g transform="translate(722,206.29) scale(2.5785) rotate(0)"><path d="M10 0H20L0 20V10L10 0Z" fill="#f5f5f5"/><path d="M20 10V20H10L20 10Z" fill="#f5f5f5"/></g><rect x="773.57" y="206.29" width="51.57" height="51.57" fill="#f5f5f5"/><g transform="translate(773.57,206.29) scale(2.5785) rotate(0)"><path d="M10 0H20L0 20V10L10 0Z" fill="#fa8886"/><path d="M20 10V20H10L20 10Z" fill="#fa8886"/></g><rect x="722" y="257.86" width="51.57" height="51.57" fill="#fb7d7b"/><g transform="translate(722,257.86) scale(2.5785) rotate(0)"><path d="M5 0H10L5 5L0 10V5L5 0Z" fill="#f6d7d6"/><path d="M20 15V20H15L20 15Z" fill="#f6d7d6"/><path d="M20 5V10L15 15L10 20H5L20 5Z" fill="#f6d7d6"/><path d="M15 0H20L5 15.0002L0 20.0002V15.0002L15 0Z" fill="#f6d7d6"/></g><rect x="773.57" y="257.86" width="51.57" height="51.57" fill="#fa9391"/><g transform="translate(773.57,257.86) scale(2.5785) rotate(0)"><path fill-rule="evenodd" clip-rule="evenodd" d="M10 20C15.5228 20 20 15.5228 20 10C20 4.47715 15.5228 0 10 0C4.47715 0 0 4.47715 0 10C0 15.5228 4.47715 20 10 20ZM10 17C13.866 17 17 13.866 17 10C17 6.13401 13.866 3 10 3C6.13401 3 3 6.13401 3 10C3 13.866 6.13401 17 10 17Z" fill="#f7d1d0"/></g><rect x="825.1428571428571" y="206.28571428571428" width="103.14285714285714" height="103.14285714285714" fill="#F5F5F5"/><rect x="825.14" y="206.29" width="51.57" height="51.57" fill="#f5f5f5"/><g transform="translate(825.14,206.29) scale(2.5785) rotate(0)"><rect width="20" height="10" fill="#f6dfde"/></g><rect x="876.71" y="206.29" width="51.57" height="51.57" fill="#f9a4a2"/><g transform="translate(876.71,206.29) scale(2.5785) rotate(0)"><rect width="20" height="10" fill="#f5f5f5"/></g><rect x="825.14" y="257.86" width="51.57" height="51.57" fill="#f5f5f5"/><g transform="translate(825.14,257.86) scale(2.5785) rotate(0)"><path d="M5 0H10L5 5L0 10V5L5 0Z" fill="#f5f5f5"/><path d="M20 15V20H15L20 15Z" fill="#f5f5f5"/><path d="M20 5V10L15 15L10 20H5L20 5Z" fill="#f5f5f5"/><path d="M15 0H20L5 15.0002L0 20.0002V15.0002L15 0Z" fill="#f5f5f5"/></g><rect x="876.71" y="257.86" width="51.57" height="51.57" fill="#f99f9e"/><g transform="translate(876.71,257.86) scale(2.5785) rotate(0)"><path fill-rule="evenodd" clip-rule="evenodd" d="M10 20C15.5228 20 20 15.5228 20 10C20 4.47715 15.5228 0 10 0C4.47715 0 0 4.47715 0 10C0 15.5228 4.47715 20 10 20ZM10 17C13.866 17 17 13.866 17 10C17 6.13401 13.866 3 10 3C6.13401 3 3 6.13401 3 10C3 13.866 6.13401 17 10 17Z" fill="#f5f5f5"/></g><rect x="928.29" y="206.29" width="103.14" height="103.14" fill="#f8aeac"/><g transform="translate(928.29,206.29) scale(5.157) rotate(0)"><path d="M5 0H10L5 5L0 10V5L5 0Z" fill="#f5f5f5"/><path d="M20 15V20H15L20 15Z" fill="#f5f5f5"/><path d="M20 5V10L15 15L10 20H5L20 5Z" fill="#f5f5f5"/><path d="M15 0H20L5 15.0002L0 20.0002V15.0002L15 0Z" fill="#f5f5f5"/></g><rect x="1031.43" y="206.29" width="103.14" height="103.14" fill="#fc5d5a"/><g transform="translate(1031.43,206.29) scale(5.157) rotate(0)"><path d="M5 0H10L5 5L0 10V5L5 0Z" fill="#f5f5f5"/><path d="M20 15V20H15L20 15Z" fill="#f5f5f5"/><path d="M20 5V10L15 15L10 20H5L20 5Z" fill="#f5f5f5"/><path d="M15 0H20L5 15.0002L0 20.0002V15.0002L15 0Z" fill="#f5f5f5"/></g><rect x="1134.5714285714284" y="206.28571428571428" width="103.14285714285714" height="103.14285714285714" fill="#F5F5F5"/><rect x="1134.57" y="206.29" width="51.57" height="51.57" fill="#f5f5f5"/><g transform="translate(1134.57,206.29) scale(2.5785) rotate(0)"><path fill-rule="evenodd" clip-rule="evenodd" d="M10 20C15.5228 20 20 15.5228 20 10C20 4.47715 15.5228 0 10 0C4.47715 0 0 4.47715 0 10C0 15.5228 4.47715 20 10 20ZM10 17C13.866 17 17 13.866 17 10C17 6.13401 13.866 3 10 3C6.13401 3 3 6.13401 3 10C3 13.866 6.13401 17 10 17Z" fill="#f5f5f5"/></g><rect x="1186.14" y="206.29" width="51.57" height="51.57" fill="#f5f5f5"/><g transform="translate(1186.14,206.29) scale(2.5785) rotate(0)"><rect width="20" height="10" fill="#f8b2b0"/></g><rect x="1134.57" y="257.86" width="51.57" height="51.57" fill="#fa9492"/><g transform="translate(1134.57,257.86) scale(2.5785) rotate(0)"><path d="M5 0H10L5 5L0 10V5L5 0Z" fill="#f5f5f5"/><path d="M20 15V20H15L20 15Z" fill="#f5f5f5"/><path d="M20 5V10L15 15L10 20H5L20 5Z" fill="#f5f5f5"/><path d="M15 0H20L5 15.0002L0 20.0002V15.0002L15 0Z" fill="#f5f5f5"/></g><rect x="1186.14" y="257.86" width="51.57" height="51.57" fill="#fa8f8d"/><g transform="translate(1186.14,257.86) scale(2.5785) rotate(0)"><path fill-rule="evenodd" clip-rule="evenodd" d="M10 20C15.5228 20 20 15.5228 20 10C20 4.47715 15.5228 0 10 0C4.47715 0 0 4.47715 0 10C0 15.5228 4.47715 20 10 20ZM10 17C13.866 17 17 13.866 17 10C17 6.13401 13.866 3 10 3C6.13401 3 3 6.13401 3 10C3 13.866 6.13401 17 10 17Z" fill="#f5f5f5"/></g><rect x="1237.71" y="206.29" width="103.14" height="103.14" fill="#fc5b58"/><g transform="translate(1237.71,206.29) scale(5.157) rotate(0)"><path d="M5 0H10L5 5L0 10V5L5 0Z" fill="#f5f5f5"/><path d="M20 15V20H15L20 15Z" fill="#f5f5f5"/><path d="M20 5V10L15 15L10 20H5L20 5Z" fill="#f5f5f5"/><path d="M15 0H20L5 15.0002L0 20.0002V15.0002L15 0Z" fill="#f5f5f5"/></g><rect x="0" y="309.42857142857144" width="103.14285714285714" height="103.14285714285714" fill="#F5F5F5"/><rect x="0" y="309.43" width="51.57" height="51.57" fill="#f5f5f5"/><g transform="translate(0,309.43) scale(2.5785) rotate(0)"><path fill-rule="evenodd" clip-rule="evenodd" d="M10 20C15.5228 20 20 15.5228 20 10C20 4.47715 15.5228 0 10 0C4.47715 0 0 4.47715 0 10C0 15.5228 4.47715 20 10 20ZM10 17C13.866 17 17 13.866 17 10C17 6.13401 13.866 3 10 3C6.13401 3 3 6.13401 3 10C3 13.866 6.13401 17 10 17Z" fill="#fa8e8c"/></g><rect x="51.57" y="309.43" width="51.57" height="51.57" fill="#f5f5f5"/><g transform="translate(51.57,309.43) scale(2.5785) rotate(0)"><path d="M10 0H20L0 20V10L10 0Z" fill="#f5f5f5"/><path d="M20 10V20H10L20 10Z" fill="#f5f5f5"/></g><rect x="0" y="361" width="51.57" height="51.57" fill="#f6e0e0"/><g transform="translate(0,361) scale(2.5785) rotate(0)"><path d="M5 0H10L5 5L0 10V5L5 0Z" fill="#f6e3e3"/><path d="M20 15V20H15L20 15Z" fill="#f6e3e3"/><path d="M20 5V10L15 15L10 20H5L20 5Z" fill="#f6e3e3"/><path d="M15 0H20L5 15.0002L0 20.0002V15.0002L15 0Z" fill="#f6e3e3"/></g><rect x="51.57" y="361" width="51.57" height="51.57" fill="#f5f5f5"/><g transform="translate(51.57,361) scale(2.5785) rotate(0)"><path d="M10 0H20L0 20V10L10 0Z" fill="#f5f5f5"/><path d="M20 10V20H10L20 10Z" fill="#f5f5f5"/></g><rect x="103.14" y="309.43" width="103.14" height="103.14" fill="#f6e5e5"/><g transform="translate(103.14,309.43) scale(5.157) rotate(0)"><path fill-rule="evenodd" clip-rule="evenodd" d="M10 20C15.5228 20 20 15.5228 20 10C20 4.47715 15.5228 0 10 0C4.47715 0 0 4.47715 0 10C0 15.5228 4.47715 20 10 20ZM10 17C13.866 17 17 13.866 17 10C17 6.13401 13.866 3 10 3C6.13401 3 3 6.13401 3 10C3 13.866 6.13401 17 10 17Z" fill="#f5f5f5"/></g><rect x="206.28571428571428" y="309.42857142857144" width="103.14285714285714" height="103.14285714285714" fill="#F5F5F5"/><rect x="206.29" y="309.43" width="51.57" height="51.57" fill="#f7cdcd"/><g transform="translate(206.29,309.43) scale(2.5785) rotate(0)"><path d="M10 0H20L0 20V10L10 0Z" fill="#f5f5f5"/><path d="M20 10V20H10L20 10Z" fill="#f5f5f5"/></g><rect x="257.86" y="309.43" width="51.57" height="51.57" fill="#f5f5f5"/><g transform="translate(257.86,309.43) scale(2.5785) rotate(0)"><rect width="20" height="10" fill="#f5f5f5"/></g><rect x="206.29" y="361" width="51.57" height="51.57" fill="#f5f5f5"/><g transform="translate(206.29,361) scale(2.5785) rotate(0)"><path fill-rule="evenodd" clip-rule="evenodd" d="M10 20C15.5228 20 20 15.5228 20 10C20 4.47715 15.5228 0 10 0C4.47715 0 0 4.47715 0 10C0 15.5228 4.47715 20 10 20ZM10 17C13.866 17 17 13.866 17 10C17 6.13401 13.866 3 10 3C6.13401 3 3 6.13401 3 10C3 13.866 6.13401 17 10 17Z" fill="#f5f5f5"/></g><rect x="257.86" y="361" width="51.57" height="51.57" fill="#f5f5f5"/><g transform="translate(257.86,361) scale(2.5785) rotate(0)"><path d="M10 0H20L0 20V10L10 0Z" fill="#f99d9b"/><path d="M20 10V20H10L20 10Z" fill="#f99d9b"/></g><rect x="309.42857142857144" y="309.42857142857144" width="103.14285714285714" height="103.14285714285714" fill="#F5F5F5"/><rect x="309.43" y="309.43" width="51.57" height="51.57" fill="#fa8b89"/><g transform="translate(309.43,309.43) scale(2.5785) rotate(0)"><path d="M10 0H20L0 20V10L10 0Z" fill="#f99897"/><path d="M20 10V20H10L20 10Z" fill="#f99897"/></g><rect x="361" y="309.43" width="51.57" height="51.57" fill="#f6dcdc"/><g transform="translate(361,309.43) scale(2.5785) rotate(0)"><path d="M10 0H20L0 20V10L10 0Z" fill="#f5f5f5"/><path d="M20 10V20H10L20 10Z" fill="#f5f5f5"/></g><rect x="309.43" y="361" width="51.57" height="51.57" fill="#fc5c59"/><g transform="translate(309.43,361) scale(2.5785) rotate(0)"><rect width="20" height="10" fill="#f5f5f5"/></g><rect x="361" y="361" width="51.57" height="51.57" fill="#f5f5f5"/><g transform="translate(361,361) scale(2.5785) rotate(0)"><path fill-rule="evenodd" clip-rule="evenodd" d="M10 20C15.5228 20 20 15.5228 20 10C20 4.47715 15.5228 0 10 0C4.47715 0 0 4.47715 0 10C0 15.5228 4.47715 20 10 20ZM10 17C13.866 17 17 13.866 17 10C17 6.13401 13.866 3 10 3C6.13401 3 3 6.13401 3 10C3 13.866 6.13401 17 10 17Z" fill="#f5f5f5"/></g><rect x="412.57" y="309.43" width="103.14" height="103.14" fill="#f6d6d5"/><g transform="translate(412.57,309.43) scale(5.157) rotate(0)"><rect width="20" height="10" fill="#fc6c6a"/></g><rect x="515.7142857142857" y="309.42857142857144" width="103.14285714285714" height="103.14285714285714" fill="#F5F5F5"/><rect x="515.71" y="309.43" width="51.57" height="51.57" fill="#f5f5f5"/><g transform="translate(515.71,309.43) scale(2.5785) rotate(0)"><path d="M10 0H20L0 20V10L10 0Z" fill="#f5f5f5"/><path d="M20 10V20H10L20 10Z" fill="#f5f5f5"/></g><rect x="567.29" y="309.43" width="51.57" height="51.57" fill="#f5f5f5"/><g transform="translate(567.29,309.43) scale(2.5785) rotate(0)"><path fill-rule="evenodd" clip-rule="evenodd" d="M10 20C15.5228 20 20 15.5228 20 10C20 4.47715 15.5228 0 10 0C4.47715 0 0 4.47715 0 10C0 15.5228 4.47715 20 10 20ZM10 17C13.866 17 17 13.866 17 10C17 6.13401 13.866 3 10 3C6.13401 3 3 6.13401 3 10C3 13.866 6.13401 17 10 17Z" fill="#f5f5f5"/></g><rect x="515.71" y="361" width="51.57" height="51.57" fill="#fb7573"/><g transform="translate(515.71,361) scale(2.5785) rotate(0)"><path fill-rule="evenodd" clip-rule="evenodd" d="M10 20C15.5228 20 20 15.5228 20 10C20 4.47715 15.5228 0 10 0C4.47715 0 0 4.47715 0 10C0 15.5228 4.47715 20 10 20ZM10 17C13.866 17 17 13.866 17 10C17 6.13401 13.866 3 10 3C6.13401 3 3 6.13401 3 10C3 13.866 6.13401 17 10 17Z" fill="#f5f5f5"/></g><rect x="567.29" y="361" width="51.57" height="51.57" fill="#f5f5f5"/><g transform="translate(567.29,361) scale(2.5785) rotate(0)"><path d="M10 0H20L0 20V10L10 0Z" fill="#f5f5f5"/><path d="M20 10V20H10L20 10Z" fill="#f5f5f5"/></g><rect x="618.86" y="309.43" width="103.14" height="103.14" fill="#f5eeee"/><g transform="translate(618.86,309.43) scale(5.157) rotate(0)"><path d="M10 0H20L0 20V10L10 0Z" fill="#f99998"/><path d="M20 10V20H10L20 10Z" fill="#f99998"/></g><rect x="722" y="309.42857142857144" width="103.14285714285714" height="103.14285714285714" fill="#F5F5F5"/><rect x="722" y="309.43" width="51.57" height="51.57" fill="#fc6967"/><g transform="translate(722,309.43) scale(2.5785) rotate(0)"><rect width="20" height="10" fill="#f7c9c9"/></g><rect x="773.57" y="309.43" width="51.57" height="51.57" fill="#f5f5f5"/><g transform="translate(773.57,309.43) scale(2.5785) rotate(0)"><path fill-rule="evenodd" clip-rule="evenodd" d="M10 20C15.5228 20 20 15.5228 20 10C20 4.47715 15.5228 0 10 0C4.47715 0 0 4.47715 0 10C0 15.5228 4.47715 20 10 20ZM10 17C13.866 17 17 13.866 17 10C17 6.13401 13.866 3 10 3C6.13401 3 3 6.13401 3 10C3 13.866 6.13401 17 10 17Z" fill="#f5f5f5"/></g><rect x="722" y="361" width="51.57" height="51.57" fill="#f5f5f5"/><g transform="translate(722,361) scale(2.5785) rotate(0)"><path d="M5 0H10L5 5L0 10V5L5 0Z" fill="#f5f5f5"/><path d="M20 15V20H15L20 15Z" fill="#f5f5f5"/><path d="M20 5V10L15 15L10 20H5L20 5Z" fill="#f5f5f5"/><path d="M15 0H20L5 15.0002L0 20.0002V15.0002L15 0Z" fill="#f5f5f5"/></g><rect x="773.57" y="361" width="51.57" height="51.57" fill="#f5f5f5"/><g transform="translate(773.57,361) scale(2.5785) rotate(0)"><path d="M5 0H10L5 5L0 10V5L5 0Z" fill="#f6d9d9"/><path d="M20 15V20H15L20 15Z" fill="#f6d9d9"/><path d="M20 5V10L15 15L10 20H5L20 5Z" fill="#f6d9d9"/><path d="M15 0H20L5 15.0002L0 20.0002V15.0002L15 0Z" fill="#f6d9d9"/></g><rect x="825.14" y="309.43" width="103.14" height="103.14" fill="#f8bbba"/><g transform="translate(825.14,309.43) scale(5.157) rotate(0)"><rect width="20" height="10" fill="#f5f5f5"/></g><rect x="928.2857142857142" y="309.42857142857144" width="103.14285714285714" height="103.14285714285714" fill="#F5F5F5"/><rect x="928.29" y="309.43" width="51.57" height="51.57" fill="#f9a3a2"/><g transform="translate(928.29,309.43) scale(2.5785) rotate(0)"><path d="M10 0H20L0 20V10L10 0Z" fill="#f5f5f5"/><path d="M20 10V20H10L20 10Z" fill="#f5f5f5"/></g><rect x="979.86" y="309.43" width="51.57" height="51.57" fill="#f8b0af"/><g transform="translate(979.86,309.43) scale(2.5785) rotate(0)"><path fill-rule="evenodd" clip-rule="evenodd" d="M10 20C15.5228 20 20 15.5228 20 10C20 4.47715 15.5228 0 10 0C4.47715 0 0 4.47715 0 10C0 15.5228 4.47715 20 10 20ZM10 17C13.866 17 17 13.866 17 10C17 6.13401 13.866 3 10 3C6.13401 3 3 6.13401 3 10C3 13.866 6.13401 17 10 17Z" fill="#f5f5f5"/></g><rect x="928.29" y="361" width="51.57" height="51.57" fill="#f5f5f5"/><g transform="translate(928.29,361) scale(2.5785) rotate(0)"><path fill-rule="evenodd" clip-rule="evenodd" d="M10 20C15.5228 20 20 15.5228 20 10C20 4.47715 15.5228 0 10 0C4.47715 0 0 4.47715 0 10C0 15.5228 4.47715 20 10 20ZM10 17C13.866 17 17 13.866 17 10C17 6.13401 13.866 3 10 3C6.13401 3 3 6.13401 3 10C3 13.866 6.13401 17 10 17Z" fill="#f6dada"/></g><rect x="979.86" y="361" width="51.57" height="51.57" fill="#f5f5f5"/><g transform="translate(979.86,361) scale(2.5785) rotate(0)"><path d="M10 0H20L0 20V10L10 0Z" fill="#f8bbba"/><path d="M20 10V20H10L20 10Z" fill="#f8bbba"/></g><rect x="1031.4285714285713" y="309.42857142857144" width="103.14285714285714" height="103.14285714285714" fill="#F5F5F5"/><rect x="1031.43" y="309.43" width="51.57" height="51.57" fill="#f5f5f5"/><g transform="translate(1031.43,309.43) scale(2.5785) rotate(0)"><path d="M10 0H20L0 20V10L10 0Z" fill="#f5f5f5"/><path d="M20 10V20H10L20 10Z" fill="#f5f5f5"/></g><rect x="1083" y="309.43" width="51.57" height="51.57" fill="#f5f5f5"/><g transform="translate(1083,309.43) scale(2.5785) rotate(0)"><rect width="20" height="10" fill="#fa9695"/></g><rect x="1031.43" y="361" width="51.57" height="51.57" fill="#fa8b89"/><g transform="translate(1031.43,361) scale(2.5785) rotate(0)"><path fill-rule="evenodd" clip-rule="evenodd" d="M10 20C15.5228 20 20 15.5228 20 10C20 4.47715 15.5228 0 10 0C4.47715 0 0 4.47715 0 10C0 15.5228 4.47715 20 10 20ZM10 17C13.866 17 17 13.866 17 10C17 6.13401 13.866 3 10 3C6.13401 3 3 6.13401 3 10C3 13.866 6.13401 17 10 17Z" fill="#f5f5f5"/></g><rect x="1083" y="361" width="51.57" height="51.57" fill="#f99e9d"/><g transform="translate(1083,361) scale(2.5785) rotate(0)"><path fill-rule="evenodd" clip-rule="evenodd" d="M10 20C15.5228 20 20 15.5228 20 10C20 4.47715 15.5228 0 10 0C4.47715 0 0 4.47715 0 10C0 15.5228 4.47715 20 10 20ZM10 17C13.866 17 17 13.866 17 10C17 6.13401 13.866 3 10 3C6.13401 3 3 6.13401 3 10C3 13.866 6.13401 17 10 17Z" fill="#f7d5d5"/></g><rect x="1134.57" y="309.43" width="103.14" height="103.14" fill="#f5f5f5"/><g transform="translate(1134.57,309.43) scale(5.157) rotate(0)"><path fill-rule="evenodd" clip-rule="evenodd" d="M10 20C15.5228 20 20 15.5228 20 10C20 4.47715 15.5228 0 10 0C4.47715 0 0 4.47715 0 10C0 15.5228 4.47715 20 10 20ZM10 17C13.866 17 17 13.866 17 10C17 6.13401 13.866 3 10 3C6.13401 3 3 6.13401 3 10C3 13.866 6.13401 17 10 17Z" fill="#f5f5f5"/></g><rect x="1237.7142857142858" y="309.42857142857144" width="103.14285714285714" height="103.14285714285714" fill="#F5F5F5"/><rect x="1237.71" y="309.43" width="51.57" height="51.57" fill="#f8bdbc"/><g transform="translate(1237.71,309.43) scale(2.5785) rotate(0)"><path d="M10 0H20L0 20V10L10 0Z" fill="#f5f5f5"/><path d="M20 10V20H10L20 10Z" fill="#f5f5f5"/></g><rect x="1289.29" y="309.43" width="51.57" height="51.57" fill="#f5f5f5"/><g transform="translate(1289.29,309.43) scale(2.5785) rotate(0)"><rect width="20" height="10" fill="#f5f5f5"/></g><rect x="1237.71" y="361" width="51.57" height="51.57" fill="#f5f5f5"/><g transform="translate(1237.71,361) scale(2.5785) rotate(0)"><path d="M10 0H20L0 20V10L10 0Z" fill="#f5f5f5"/><path d="M20 10V20H10L20 10Z" fill="#f5f5f5"/></g><rect x="1289.29" y="361" width="51.57" height="51.57" fill="#f5f5f5"/><g transform="translate(1289.29,361) scale(2.5785) rotate(0)"><path d="M5 0H10L5 5L0 10V5L5 0Z" fill="#fc6361"/><path d="M20 15V20H15L20 15Z" fill="#fc6361"/><path d="M20 5V10L15 15L10 20H5L20 5Z" fill="#fc6361"/><path d="M15 0H20L5 15.0002L0 20.0002V15.0002L15 0Z" fill="#fc6361"/></g><rect x="0" y="412.57142857142856" width="103.14285714285714" height="103.14285714285714" fill="#F5F5F5"/><rect x="0" y="412.57" width="51.57" height="51.57" fill="#f5f5f5"/><g transform="translate(0,412.57) scale(2.5785) rotate(0)"><rect width="20" height="10" fill="#f8bcbb"/></g><rect x="51.57" y="412.57" width="51.57" height="51.57" fill="#f99b99"/><g transform="translate(51.57,412.57) scale(2.5785) rotate(0)"><rect width="20" height="10" fill="#f5f5f5"/></g><rect x="0" y="464.14" width="51.57" height="51.57" fill="#f5f5f5"/><g transform="translate(0,464.14) scale(2.5785) rotate(0)"><path d="M10 0H20L0 20V10L10 0Z" fill="#f5f5f5"/><path d="M20 10V20H10L20 10Z" fill="#f5f5f5"/></g><rect x="51.57" y="464.14" width="51.57" height="51.57" fill="#f5f5f5"/><g transform="translate(51.57,464.14) scale(2.5785) rotate(0)"><path d="M10 0H20L0 20V10L10 0Z" fill="#f5f5f5"/><path d="M20 10V20H10L20 10Z" fill="#f5f5f5"/></g><rect x="103.14285714285714" y="412.57142857142856" width="103.14285714285714" height="103.14285714285714" fill="#F5F5F5"/><rect x="103.14" y="412.57" width="51.57" height="51.57" fill="#f6dfde"/><g transform="translate(103.14,412.57) scale(2.5785) rotate(0)"><rect width="20" height="10" fill="#f9abaa"/></g><rect x="154.71" y="412.57" width="51.57" height="51.57" fill="#f5f2f2"/><g transform="translate(154.71,412.57) scale(2.5785) rotate(0)"><rect width="20" height="10" fill="#fd5855"/></g><rect x="103.14" y="464.14" width="51.57" height="51.57" fill="#f5f5f5"/><g transform="translate(103.14,464.14) scale(2.5785) rotate(0)"><rect width="20" height="10" fill="#f99b9a"/></g><rect x="154.71" y="464.14" width="51.57" height="51.57" fill="#f5f5f5"/><g transform="translate(154.71,464.14) scale(2.5785) rotate(0)"><path d="M5 0H10L5 5L0 10V5L5 0Z" fill="#f7cecd"/><path d="M20 15V20H15L20 15Z" fill="#f7cecd"/><path d="M20 5V10L15 15L10 20H5L20 5Z" fill="#f7cecd"/><path d="M15 0H20L5 15.0002L0 20.0002V15.0002L15 0Z" fill="#f7cecd"/></g><rect x="206.28571428571428" y="412.57142857142856" width="103.14285714285714" height="103.14285714285714" fill="#F5F5F5"/><rect x="206.29" y="412.57" width="51.57" height="51.57" fill="#f5f5f5"/><g transform="translate(206.29,412.57) scale(2.5785) rotate(0)"><path fill-rule="evenodd" clip-rule="evenodd" d="M10 20C15.5228 20 20 15.5228 20 10C20 4.47715 15.5228 0 10 0C4.47715 0 0 4.47715 0 10C0 15.5228 4.47715 20 10 20ZM10 17C13.866 17 17 13.866 17 10C17 6.13401 13.866 3 10 3C6.13401 3 3 6.13401 3 10C3 13.866 6.13401 17 10 17Z" fill="#f5f5f5"/></g><rect x="257.86" y="412.57" width="51.57" height="51.57" fill="#f5f5f5"/><g transform="translate(257.86,412.57) scale(2.5785) rotate(0)"><path d="M5 0H10L5 5L0 10V5L5 0Z" fill="#f5f5f5"/><path d="M20 15V20H15L20 15Z" fill="#f5f5f5"/><path d="M20 5V10L15 15L10 20H5L20 5Z" fill="#f5f5f5"/><path d="M15 0H20L5 15.0002L0 20.0002V15.0002L15 0Z" fill="#f5f5f5"/></g><rect x="206.29" y="464.14" width="51.57" height="51.57" fill="#fb7977"/><g transform="translate(206.29,464.14) scale(2.5785) rotate(0)"><rect width="20" height="10" fill="#f5f5f5"/></g><rect x="257.86" y="464.14" width="51.57" height="51.57" fill="#fa8380"/><g transform="translate(257.86,464.14) scale(2.5785) rotate(0)"><rect width="20" height="10" fill="#f6e1e0"/></g><rect x="309.43" y="412.57" width="103.14" height="103.14" fill="#f7cecd"/><g transform="translate(309.43,412.57) scale(5.157) rotate(0)"><rect width="20" height="10" fill="#f5f5f5"/></g><rect x="412.57" y="412.57" width="103.14" height="103.14" fill="#f5f5f5"/><g transform="translate(412.57,412.57) scale(5.157) rotate(0)"><rect width="20" height="10" fill="#f5f5f5"/></g><rect x="515.71" y="412.57" width="103.14" height="103.14" fill="#fb7471"/><g transform="translate(515.71,412.57) scale(5.157) rotate(0)"><rect width="20" height="10" fill="#fb7673"/></g><rect x="618.86" y="412.57" width="103.14" height="103.14" fill="#f5f4f4"/><g transform="translate(618.86,412.57) scale(5.157) rotate(0)"><path fill-rule="evenodd" clip-rule="evenodd" d="M10 20C15.5228 20 20 15.5228 20 10C20 4.47715 15.5228 0 10 0C4.47715 0 0 4.47715 0 10C0 15.5228 4.47715 20 10 20ZM10 17C13.866 17 17 13.866 17 10C17 6.13401 13.866 3 10 3C6.13401 3 3 6.13401 3 10C3 13.866 6.13401 17 10 17Z" fill="#f6dede"/></g><rect x="722" y="412.57" width="103.14" height="103.14" fill="#f5f5f5"/><g transform="translate(722,412.57) scale(5.157) rotate(0)"><path fill-rule="evenodd" clip-rule="evenodd" d="M10 20C15.5228 20 20 15.5228 20 10C20 4.47715 15.5228 0 10 0C4.47715 0 0 4.47715 0 10C0 15.5228 4.47715 20 10 20ZM10 17C13.866 17 17 13.866 17 10C17 6.13401 13.866 3 10 3C6.13401 3 3 6.13401 3 10C3 13.866 6.13401 17 10 17Z" fill="#f8adac"/></g><rect x="825.1428571428571" y="412.57142857142856" width="103.14285714285714" height="103.14285714285714" fill="#F5F5F5"/><rect x="825.14" y="412.57" width="51.57" height="51.57" fill="#f5f5f5"/><g transform="translate(825.14,412.57) scale(2.5785) rotate(0)"><path d="M10 0H20L0 20V10L10 0Z" fill="#f5f5f5"/><path d="M20 10V20H10L20 10Z" fill="#f5f5f5"/></g><rect x="876.71" y="412.57" width="51.57" height="51.57" fill="#f9a1a0"/><g transform="translate(876.71,412.57) scale(2.5785) rotate(0)"><rect width="20" height="10" fill="#fc6462"/></g><rect x="825.14" y="464.14" width="51.57" height="51.57" fill="#fb807e"/><g transform="translate(825.14,464.14) scale(2.5785) rotate(0)"><path fill-rule="evenodd" clip-rule="evenodd" d="M10 20C15.5228 20 20 15.5228 20 10C20 4.47715 15.5228 0 10 0C4.47715 0 0 4.47715 0 10C0 15.5228 4.47715 20 10 20ZM10 17C13.866 17 17 13.866 17 10C17 6.13401 13.866 3 10 3C6.13401 3 3 6.13401 3 10C3 13.866 6.13401 17 10 17Z" fill="#fa9492"/></g><rect x="876.71" y="464.14" width="51.57" height="51.57" fill="#f5f5f5"/><g transform="translate(876.71,464.14) scale(2.5785) rotate(0)"><path d="M10 0H20L0 20V10L10 0Z" fill="#f5f5f5"/><path d="M20 10V20H10L20 10Z" fill="#f5f5f5"/></g><rect x="928.2857142857142" y="412.57142857142856" width="103.14285714285714" height="103.14285714285714" fill="#F5F5F5"/><rect x="928.29" y="412.57" width="51.57" height="51.57" fill="#fb7775"/><g transform="translate(928.29,412.57) scale(2.5785) rotate(0)"><path fill-rule="evenodd" clip-rule="evenodd" d="M10 20C15.5228 20 20 15.5228 20 10C20 4.47715 15.5228 0 10 0C4.47715 0 0 4.47715 0 10C0 15.5228 4.47715 20 10 20ZM10 17C13.866 17 17 13.866 17 10C17 6.13401 13.866 3 10 3C6.13401 3 3 6.13401 3 10C3 13.866 6.13401 17 10 17Z" fill="#f6dcdb"/></g><rect x="979.86" y="412.57" width="51.57" height="51.57" fill="#fb7f7d"/><g transform="translate(979.86,412.57) scale(2.5785) rotate(0)"><path fill-rule="evenodd" clip-rule="evenodd" d="M10 20C15.5228 20 20 15.5228 20 10C20 4.47715 15.5228 0 10 0C4.47715 0 0 4.47715 0 10C0 15.5228 4.47715 20 10 20ZM10 17C13.866 17 17 13.866 17 10C17 6.13401 13.866 3 10 3C6.13401 3 3 6.13401 3 10C3 13.866 6.13401 17 10 17Z" fill="#f5f5f5"/></g><rect x="928.29" y="464.14" width="51.57" height="51.57" fill="#f5f2f2"/><g transform="translate(928.29,464.14) scale(2.5785) rotate(0)"><path fill-rule="evenodd" clip-rule="evenodd" d="M10 20C15.5228 20 20 15.5228 20 10C20 4.47715 15.5228 0 10 0C4.47715 0 0 4.47715 0 10C0 15.5228 4.47715 20 10 20ZM10 17C13.866 17 17 13.866 17 10C17 6.13401 13.866 3 10 3C6.13401 3 3 6.13401 3 10C3 13.866 6.13401 17 10 17Z" fill="#f5f5f5"/></g><rect x="979.86" y="464.14" width="51.57" height="51.57" fill="#f5f5f5"/><g transform="translate(979.86,464.14) scale(2.5785) rotate(0)"><path d="M10 0H20L0 20V10L10 0Z" fill="#f5f5f5"/><path d="M20 10V20H10L20 10Z" fill="#f5f5f5"/></g><rect x="1031.4285714285713" y="412.57142857142856" width="103.14285714285714" height="103.14285714285714" fill="#F5F5F5"/><rect x="1031.43" y="412.57" width="51.57" height="51.57" fill="#fd514e"/><g transform="translate(1031.43,412.57) scale(2.5785) rotate(0)"><path d="M5 0H10L5 5L0 10V5L5 0Z" fill="#f5f5f5"/><path d="M20 15V20H15L20 15Z" fill="#f5f5f5"/><path d="M20 5V10L15 15L10 20H5L20 5Z" fill="#f5f5f5"/><path d="M15 0H20L5 15.0002L0 20.0002V15.0002L15 0Z" fill="#f5f5f5"/></g><rect x="1083" y="412.57" width="51.57" height="51.57" fill="#fb7674"/><g transform="translate(1083,412.57) scale(2.5785) rotate(0)"><rect width="20" height="10" fill="#fb7472"/></g><rect x="1031.43" y="464.14" width="51.57" height="51.57" fill="#f5f5f5"/><g transform="translate(1031.43,464.14) scale(2.5785) rotate(0)"><path d="M10 0H20L0 20V10L10 0Z" fill="#f5f5f5"/><path d="M20 10V20H10L20 10Z" fill="#f5f5f5"/></g><rect x="1083" y="464.14" width="51.57" height="51.57" fill="#f5f5f5"/><g transform="translate(1083,464.14) scale(2.5785) rotate(0)"><path d="M5 0H10L5 5L0 10V5L5 0Z" fill="#f99e9d"/><path d="M20 15V20H15L20 15Z" fill="#f99e9d"/><path d="M20 5V10L15 15L10 20H5L20 5Z" fill="#f99e9d"/><path d="M15 0H20L5 15.0002L0 20.0002V15.0002L15 0Z" fill="#f99e9d"/></g><rect x="1134.57" y="412.57" width="103.14" height="103.14" fill="#fb7674"/><g transform="translate(1134.57,412.57) scale(5.157) rotate(0)"><path d="M10 0H20L0 20V10L10 0Z" fill="#f5f5f5"/><path d="M20 10V20H10L20 10Z" fill="#f5f5f5"/></g><rect x="1237.7142857142858" y="412.57142857142856" width="103.14285714285714" height="103.14285714285714" fill="#F5F5F5"/><rect x="1237.71" y="412.57" width="51.57" height="51.57" fill="#f5f5f5"/><g transform="translate(1237.71,412.57) scale(2.5785) rotate(0)"><path d="M5 0H10L5 5L0 10V5L5 0Z" fill="#f5f5f5"/><path d="M20 15V20H15L20 15Z" fill="#f5f5f5"/><path d="M20 5V10L15 15L10 20H5L20 5Z" fill="#f5f5f5"/><path d="M15 0H20L5 15.0002L0 20.0002V15.0002L15 0Z" fill="#f5f5f5"/></g><rect x="1289.29" y="412.57" width="51.57" height="51.57" fill="#f5f5f5"/><g transform="translate(1289.29,412.57) scale(2.5785) rotate(0)"><path fill-rule="evenodd" clip-rule="evenodd" d="M10 20C15.5228 20 20 15.5228 20 10C20 4.47715 15.5228 0 10 0C4.47715 0 0 4.47715 0 10C0 15.5228 4.47715 20 10 20ZM10 17C13.866 17 17 13.866 17 10C17 6.13401 13.866 3 10 3C6.13401 3 3 6.13401 3 10C3 13.866 6.13401 17 10 17Z" fill="#f5f5f5"/></g><rect x="1237.71" y="464.14" width="51.57" height="51.57" fill="#f5f5f5"/><g transform="translate(1237.71,464.14) scale(2.5785) rotate(0)"><path fill-rule="evenodd" clip-rule="evenodd" d="M10 20C15.5228 20 20 15.5228 20 10C20 4.47715 15.5228 0 10 0C4.47715 0 0 4.47715 0 10C0 15.5228 4.47715 20 10 20ZM10 17C13.866 17 17 13.866 17 10C17 6.13401 13.866 3 10 3C6.13401 3 3 6.13401 3 10C3 13.866 6.13401 17 10 17Z" fill="#fa908e"/></g><rect x="1289.29" y="464.14" width="51.57" height="51.57" fill="#fb706e"/><g transform="translate(1289.29,464.14) scale(2.5785) rotate(0)"><rect width="20" height="10" fill="#f5f5f5"/></g><rect x="0" y="515.7142857142857" width="103.14285714285714" height="103.14285714285714" fill="#F5F5F5"/><rect x="0" y="515.71" width="51.57" height="51.57" fill="#f5f5f5"/><g transform="translate(0,515.71) scale(2.5785) rotate(0)"><rect width="20" height="10" fill="#f5f5f5"/></g><rect x="51.57" y="515.71" width="51.57" height="51.57" fill="#f8bbba"/><g transform="translate(51.57,515.71) scale(2.5785) rotate(0)"><rect width="20" height="10" fill="#f5f5f5"/></g><rect x="0" y="567.29" width="51.57" height="51.57" fill="#f5f5f5"/><g transform="translate(0,567.29) scale(2.5785) rotate(0)"><path d="M5 0H10L5 5L0 10V5L5 0Z" fill="#fc6361"/><path d="M20 15V20H15L20 15Z" fill="#fc6361"/><path d="M20 5V10L15 15L10 20H5L20 5Z" fill="#fc6361"/><path d="M15 0H20L5 15.0002L0 20.0002V15.0002L15 0Z" fill="#fc6361"/></g><rect x="51.57" y="567.29" width="51.57" height="51.57" fill="#f99e9d"/><g transform="translate(51.57,567.29) scale(2.5785) rotate(0)"><path d="M10 0H20L0 20V10L10 0Z" fill="#f5f5f5"/><path d="M20 10V20H10L20 10Z" fill="#f5f5f5"/></g><rect x="103.14285714285714" y="515.7142857142857" width="103.14285714285714" height="103.14285714285714" fill="#F5F5F5"/><rect x="103.14" y="515.71" width="51.57" height="51.57" fill="#f5f5f5"/><g transform="translate(103.14,515.71) scale(2.5785) rotate(0)"><path d="M10 0H20L0 20V10L10 0Z" fill="#fd5855"/><path d="M20 10V20H10L20 10Z" fill="#fd5855"/></g><rect x="154.71" y="515.71" width="51.57" height="51.57" fill="#f5f5f5"/><g transform="translate(154.71,515.71) scale(2.5785) rotate(0)"><path fill-rule="evenodd" clip-rule="evenodd" d="M10 20C15.5228 20 20 15.5228 20 10C20 4.47715 15.5228 0 10 0C4.47715 0 0 4.47715 0 10C0 15.5228 4.47715 20 10 20ZM10 17C13.866 17 17 13.866 17 10C17 6.13401 13.866 3 10 3C6.13401 3 3 6.13401 3 10C3 13.866 6.13401 17 10 17Z" fill="#f99c9a"/></g><rect x="103.14" y="567.29" width="51.57" height="51.57" fill="#f7c8c7"/><g transform="translate(103.14,567.29) scale(2.5785) rotate(0)"><rect width="20" height="10" fill="#f7cfce"/></g><rect x="154.71" y="567.29" width="51.57" height="51.57" fill="#f5f5f5"/><g transform="translate(154.71,567.29) scale(2.5785) rotate(0)"><path d="M10 0H20L0 20V10L10 0Z" fill="#fd5855"/><path d="M20 10V20H10L20 10Z" fill="#fd5855"/></g><rect x="206.29" y="515.71" width="103.14" height="103.14" fill="#f5f5f5"/><g transform="translate(206.29,515.71) scale(5.157) rotate(0)"><rect width="20" height="10" fill="#f5f5f5"/></g><rect x="309.42857142857144" y="515.7142857142857" width="103.14285714285714" height="103.14285714285714" fill="#F5F5F5"/><rect x="309.43" y="515.71" width="51.57" height="51.57" fill="#f5f5f5"/><g transform="translate(309.43,515.71) scale(2.5785) rotate(0)"><path d="M5 0H10L5 5L0 10V5L5 0Z" fill="#fc615f"/><path d="M20 15V20H15L20 15Z" fill="#fc615f"/><path d="M20 5V10L15 15L10 20H5L20 5Z" fill="#fc615f"/><path d="M15 0H20L5 15.0002L0 20.0002V15.0002L15 0Z" fill="#fc615f"/></g><rect x="361" y="515.71" width="51.57" height="51.57" fill="#f5f5f5"/><g transform="translate(361,515.71) scale(2.5785) rotate(0)"><path d="M10 0H20L0 20V10L10 0Z" fill="#fb7b79"/><path d="M20 10V20H10L20 10Z" fill="#fb7b79"/></g><rect x="309.43" y="567.29" width="51.57" height="51.57" fill="#f5f5f5"/><g transform="translate(309.43,567.29) scale(2.5785) rotate(0)"><path fill-rule="evenodd" clip-rule="evenodd" d="M10 20C15.5228 20 20 15.5228 20 10C20 4.47715 15.5228 0 10 0C4.47715 0 0 4.47715 0 10C0 15.5228 4.47715 20 10 20ZM10 17C13.866 17 17 13.866 17 10C17 6.13401 13.866 3 10 3C6.13401 3 3 6.13401 3 10C3 13.866 6.13401 17 10 17Z" fill="#f5f5f5"/></g><rect x="361" y="567.29" width="51.57" height="51.57" fill="#f5f5f5"/><g transform="translate(361,567.29) scale(2.5785) rotate(0)"><path d="M5 0H10L5 5L0 10V5L5 0Z" fill="#fa8a88"/><path d="M20 15V20H15L20 15Z" fill="#fa8a88"/><path d="M20 5V10L15 15L10 20H5L20 5Z" fill="#fa8a88"/><path d="M15 0H20L5 15.0002L0 20.0002V15.0002L15 0Z" fill="#fa8a88"/></g><rect x="412.57142857142856" y="515.7142857142857" width="103.14285714285714" height="103.14285714285714" fill="#F5F5F5"/><rect x="412.57" y="515.71" width="51.57" height="51.57" fill="#f5f5f5"/><g transform="translate(412.57,515.71) scale(2.5785) rotate(0)"><path d="M5 0H10L5 5L0 10V5L5 0Z" fill="#f5f5f5"/><path d="M20 15V20H15L20 15Z" fill="#f5f5f5"/><path d="M20 5V10L15 15L10 20H5L20 5Z" fill="#f5f5f5"/><path d="M15 0H20L5 15.0002L0 20.0002V15.0002L15 0Z" fill="#f5f5f5"/></g><rect x="464.14" y="515.71" width="51.57" height="51.57" fill="#f6dfdf"/><g transform="translate(464.14,515.71) scale(2.5785) rotate(0)"><path d="M10 0H20L0 20V10L10 0Z" fill="#f6d8d7"/><path d="M20 10V20H10L20 10Z" fill="#f6d8d7"/></g><rect x="412.57" y="567.29" width="51.57" height="51.57" fill="#f9a6a4"/><g transform="translate(412.57,567.29) scale(2.5785) rotate(0)"><path d="M5 0H10L5 5L0 10V5L5 0Z" fill="#f5f5f5"/><path d="M20 15V20H15L20 15Z" fill="#f5f5f5"/><path d="M20 5V10L15 15L10 20H5L20 5Z" fill="#f5f5f5"/><path d="M15 0H20L5 15.0002L0 20.0002V15.0002L15 0Z" fill="#f5f5f5"/></g><rect x="464.14" y="567.29" width="51.57" height="51.57" fill="#f5f5f5"/><g transform="translate(464.14,567.29) scale(2.5785) rotate(0)"><path fill-rule="evenodd" clip-rule="evenodd" d="M10 20C15.5228 20 20 15.5228 20 10C20 4.47715 15.5228 0 10 0C4.47715 0 0 4.47715 0 10C0 15.5228 4.47715 20 10 20ZM10 17C13.866 17 17 13.866 17 10C17 6.13401 13.866 3 10 3C6.13401 3 3 6.13401 3 10C3 13.866 6.13401 17 10 17Z" fill="#f9a2a1"/></g><rect x="515.71" y="515.71" width="103.14" height="103.14" fill="#f5f5f5"/><g transform="translate(515.71,515.71) scale(5.157) rotate(0)"><rect width="20" height="10" fill="#f5f5f5"/></g><rect x="618.86" y="515.71" width="103.14" height="103.14" fill="#f5f5f5"/><g transform="translate(618.86,515.71) scale(5.157) rotate(0)"><path fill-rule="evenodd" clip-rule="evenodd" d="M10 20C15.5228 20 20 15.5228 20 10C20 4.47715 15.5228 0 10 0C4.47715 0 0 4.47715 0 10C0 15.5228 4.47715 20 10 20ZM10 17C13.866 17 17 13.866 17 10C17 6.13401 13.866 3 10 3C6.13401 3 3 6.13401 3 10C3 13.866 6.13401 17 10 17Z" fill="#f7c2c1"/></g><rect x="722" y="515.7142857142857" width="103.14285714285714" height="103.14285714285714" fill="#F5F5F5"/><rect x="722" y="515.71" width="51.57" height="51.57" fill="#f5f5f5"/><g transform="translate(722,515.71) scale(2.5785) rotate(0)"><path d="M5 0H10L5 5L0 10V5L5 0Z" fill="#fa9694"/><path d="M20 15V20H15L20 15Z" fill="#fa9694"/><path d="M20 5V10L15 15L10 20H5L20 5Z" fill="#fa9694"/><path d="M15 0H20L5 15.0002L0 20.0002V15.0002L15 0Z" fill="#fa9694"/></g><rect x="773.57" y="515.71" width="51.57" height="51.57" fill="#fc605d"/><g transform="translate(773.57,515.71) scale(2.5785) rotate(0)"><path fill-rule="evenodd" clip-rule="evenodd" d="M10 20C15.5228 20 20 15.5228 20 10C20 4.47715 15.5228 0 10 0C4.47715 0 0 4.47715 0 10C0 15.5228 4.47715 20 10 20ZM10 17C13.866 17 17 13.866 17 10C17 6.13401 13.866 3 10 3C6.13401 3 3 6.13401 3 10C3 13.866 6.13401 17 10 17Z" fill="#f5f5f5"/></g><rect x="722" y="567.29" width="51.57" height="51.57" fill="#f5f5f5"/><g transform="translate(722,567.29) scale(2.5785) rotate(0)"><path d="M5 0H10L5 5L0 10V5L5 0Z" fill="#f6d9d9"/><path d="M20 15V20H15L20 15Z" fill="#f6d9d9"/><path d="M20 5V10L15 15L10 20H5L20 5Z" fill="#f6d9d9"/><path d="M15 0H20L5 15.0002L0 20.0002V15.0002L15 0Z" fill="#f6d9d9"/></g><rect x="773.57" y="567.29" width="51.57" height="51.57" fill="#f5f5f5"/><g transform="translate(773.57,567.29) scale(2.5785) rotate(0)"><path fill-rule="evenodd" clip-rule="evenodd" d="M10 20C15.5228 20 20 15.5228 20 10C20 4.47715 15.5228 0 10 0C4.47715 0 0 4.47715 0 10C0 15.5228 4.47715 20 10 20ZM10 17C13.866 17 17 13.866 17 10C17 6.13401 13.866 3 10 3C6.13401 3 3 6.13401 3 10C3 13.866 6.13401 17 10 17Z" fill="#f5f5f5"/></g><rect x="825.14" y="515.71" width="103.14" height="103.14" fill="#f5f5f5"/><g transform="translate(825.14,515.71) scale(5.157) rotate(0)"><rect width="20" height="10" fill="#fd504d"/></g><rect x="928.2857142857142" y="515.7142857142857" width="103.14285714285714" height="103.14285714285714" fill="#F5F5F5"/><rect x="928.29" y="515.71" width="51.57" height="51.57" fill="#f6d6d6"/><g transform="translate(928.29,515.71) scale(2.5785) rotate(0)"><path d="M5 0H10L5 5L0 10V5L5 0Z" fill="#f5f5f5"/><path d="M20 15V20H15L20 15Z" fill="#f5f5f5"/><path d="M20 5V10L15 15L10 20H5L20 5Z" fill="#f5f5f5"/><path d="M15 0H20L5 15.0002L0 20.0002V15.0002L15 0Z" fill="#f5f5f5"/></g><rect x="979.86" y="515.71" width="51.57" height="51.57" fill="#f5f5f5"/><g transform="translate(979.86,515.71) scale(2.5785) rotate(0)"><path d="M10 0H20L0 20V10L10 0Z" fill="#fd5855"/><path d="M20 10V20H10L20 10Z" fill="#fd5855"/></g><rect x="928.29" y="567.29" width="51.57" height="51.57" fill="#f5f5f5"/><g transform="translate(928.29,567.29) scale(2.5785) rotate(0)"><path fill-rule="evenodd" clip-rule="evenodd" d="M10 20C15.5228 20 20 15.5228 20 10C20 4.47715 15.5228 0 10 0C4.47715 0 0 4.47715 0 10C0 15.5228 4.47715 20 10 20ZM10 17C13.866 17 17 13.866 17 10C17 6.13401 13.866 3 10 3C6.13401 3 3 6.13401 3 10C3 13.866 6.13401 17 10 17Z" fill="#f5f5f5"/></g><rect x="979.86" y="567.29" width="51.57" height="51.57" fill="#fc6260"/><g transform="translate(979.86,567.29) scale(2.5785) rotate(0)"><path d="M5 0H10L5 5L0 10V5L5 0Z" fill="#f99a98"/><path d="M20 15V20H15L20 15Z" fill="#f99a98"/><path d="M20 5V10L15 15L10 20H5L20 5Z" fill="#f99a98"/><path d="M15 0H20L5 15.0002L0 20.0002V15.0002L15 0Z" fill="#f99a98"/></g><rect x="1031.43" y="515.71" width="103.14" height="103.14" fill="#f5f5f5"/><g transform="translate(1031.43,515.71) scale(5.157) rotate(0)"><rect width="20" height="10" fill="#fb7472"/></g><rect x="1134.5714285714284" y="515.7142857142857" width="103.14285714285714" height="103.14285714285714" fill="#F5F5F5"/><rect x="1134.57" y="515.71" width="51.57" height="51.57" fill="#fc6d6b"/><g transform="translate(1134.57,515.71) scale(2.5785) rotate(0)"><path fill-rule="evenodd" clip-rule="evenodd" d="M10 20C15.5228 20 20 15.5228 20 10C20 4.47715 15.5228 0 10 0C4.47715 0 0 4.47715 0 10C0 15.5228 4.47715 20 10 20ZM10 17C13.866 17 17 13.866 17 10C17 6.13401 13.866 3 10 3C6.13401 3 3 6.13401 3 10C3 13.866 6.13401 17 10 17Z" fill="#f5f5f5"/></g><rect x="1186.14" y="515.71" width="51.57" height="51.57" fill="#f5f5f5"/><g transform="translate(1186.14,515.71) scale(2.5785) rotate(0)"><path d="M10 0H20L0 20V10L10 0Z" fill="#f6d8d8"/><path d="M20 10V20H10L20 10Z" fill="#f6d8d8"/></g><rect x="1134.57" y="567.29" width="51.57" height="51.57" fill="#f5f5f5"/><g transform="translate(1134.57,567.29) scale(2.5785) rotate(0)"><path d="M5 0H10L5 5L0 10V5L5 0Z" fill="#f5f5f5"/><path d="M20 15V20H15L20 15Z" fill="#f5f5f5"/><path d="M20 5V10L15 15L10 20H5L20 5Z" fill="#f5f5f5"/><path d="M15 0H20L5 15.0002L0 20.0002V15.0002L15 0Z" fill="#f5f5f5"/></g><rect x="1186.14" y="567.29" width="51.57" height="51.57" fill="#fd4e4b"/><g transform="translate(1186.14,567.29) scale(2.5785) rotate(0)"><path fill-rule="evenodd" clip-rule="evenodd" d="M10 20C15.5228 20 20 15.5228 20 10C20 4.47715 15.5228 0 10 0C4.47715 0 0 4.47715 0 10C0 15.5228 4.47715 20 10 20ZM10 17C13.866 17 17 13.866 17 10C17 6.13401 13.866 3 10 3C6.13401 3 3 6.13401 3 10C3 13.866 6.13401 17 10 17Z" fill="#f5f5f5"/></g><rect x="1237.7142857142858" y="515.7142857142857" width="103.14285714285714" height="103.14285714285714" fill="#F5F5F5"/><rect x="1237.71" y="515.71" width="51.57" height="51.57" fill="#fb7573"/><g transform="translate(1237.71,515.71) scale(2.5785) rotate(0)"><path d="M10 0H20L0 20V10L10 0Z" fill="#fc5c59"/><path d="M20 10V20H10L20 10Z" fill="#fc5c59"/></g><rect x="1289.29" y="515.71" width="51.57" height="51.57" fill="#f7c1c0"/><g transform="translate(1289.29,515.71) scale(2.5785) rotate(0)"><path fill-rule="evenodd" clip-rule="evenodd" d="M10 20C15.5228 20 20 15.5228 20 10C20 4.47715 15.5228 0 10 0C4.47715 0 0 4.47715 0 10C0 15.5228 4.47715 20 10 20ZM10 17C13.866 17 17 13.866 17 10C17 6.13401 13.866 3 10 3C6.13401 3 3 6.13401 3 10C3 13.866 6.13401 17 10 17Z" fill="#f5f5f5"/></g><rect x="1237.71" y="567.29" width="51.57" height="51.57" fill="#fc5c59"/><g transform="translate(1237.71,567.29) scale(2.5785) rotate(0)"><rect width="20" height="10" fill="#f8b1b0"/></g><rect x="1289.29" y="567.29" width="51.57" height="51.57" fill="#f99a98"/><g transform="translate(1289.29,567.29) scale(2.5785) rotate(0)"><path fill-rule="evenodd" clip-rule="evenodd" d="M10 20C15.5228 20 20 15.5228 20 10C20 4.47715 15.5228 0 10 0C4.47715 0 0 4.47715 0 10C0 15.5228 4.47715 20 10 20ZM10 17C13.866 17 17 13.866 17 10C17 6.13401 13.866 3 10 3C6.13401 3 3 6.13401 3 10C3 13.866 6.13401 17 10 17Z" fill="#f6e5e5"/></g><rect x="0" y="618.86" width="103.14" height="103.14" fill="#fd5653"/><g transform="translate(0,618.86) scale(5.157) rotate(0)"><rect width="20" height="10" fill="#fc6764"/></g><rect x="103.14" y="618.86" width="103.14" height="103.14" fill="#fb706d"/><g transform="translate(103.14,618.86) scale(5.157) rotate(0)"><path d="M10 0H20L0 20V10L10 0Z" fill="#f6eaea"/><path d="M20 10V20H10L20 10Z" fill="#f6eaea"/></g><rect x="206.29" y="618.86" width="103.14" height="103.14" fill="#fb7371"/><g transform="translate(206.29,618.86) scale(5.157) rotate(0)"><path fill-rule="evenodd" clip-rule="evenodd" d="M10 20C15.5228 20 20 15.5228 20 10C20 4.47715 15.5228 0 10 0C4.47715 0 0 4.47715 0 10C0 15.5228 4.47715 20 10 20ZM10 17C13.866 17 17 13.866 17 10C17 6.13401 13.866 3 10 3C6.13401 3 3 6.13401 3 10C3 13.866 6.13401 17 10 17Z" fill="#f5eded"/></g><rect x="309.43" y="618.86" width="103.14" height="103.14" fill="#fa9695"/><g transform="translate(309.43,618.86) scale(5.157) rotate(0)"><rect width="20" height="10" fill="#f5f5f5"/></g><rect x="412.57142857142856" y="618.8571428571429" width="103.14285714285714" height="103.14285714285714" fill="#F5F5F5"/><rect x="412.57" y="618.86" width="51.57" height="51.57" fill="#f7d3d3"/><g transform="translate(412.57,618.86) scale(2.5785) rotate(0)"><rect width="20" height="10" fill="#f5f5f5"/></g><rect x="464.14" y="618.86" width="51.57" height="51.57" fill="#fa9593"/><g transform="translate(464.14,618.86) scale(2.5785) rotate(0)"><rect width="20" height="10" fill="#f5f5f5"/></g><rect x="412.57" y="670.43" width="51.57" height="51.57" fill="#f8b5b3"/><g transform="translate(412.57,670.43) scale(2.5785) rotate(0)"><path d="M10 0H20L0 20V10L10 0Z" fill="#f5f5f5"/><path d="M20 10V20H10L20 10Z" fill="#f5f5f5"/></g><rect x="464.14" y="670.43" width="51.57" height="51.57" fill="#f6e0e0"/><g transform="translate(464.14,670.43) scale(2.5785) rotate(0)"><path fill-rule="evenodd" clip-rule="evenodd" d="M10 20C15.5228 20 20 15.5228 20 10C20 4.47715 15.5228 0 10 0C4.47715 0 0 4.47715 0 10C0 15.5228 4.47715 20 10 20ZM10 17C13.866 17 17 13.866 17 10C17 6.13401 13.866 3 10 3C6.13401 3 3 6.13401 3 10C3 13.866 6.13401 17 10 17Z" fill="#f5f5f5"/></g><rect x="515.71" y="618.86" width="103.14" height="103.14" fill="#fc5e5b"/><g transform="translate(515.71,618.86) scale(5.157) rotate(0)"><path d="M10 0H20L0 20V10L10 0Z" fill="#fb7c79"/><path d="M20 10V20H10L20 10Z" fill="#fb7c79"/></g><rect x="618.86" y="618.86" width="103.14" height="103.14" fill="#f5f5f5"/><g transform="translate(618.86,618.86) scale(5.157) rotate(0)"><path d="M5 0H10L5 5L0 10V5L5 0Z" fill="#f7d3d2"/><path d="M20 15V20H15L20 15Z" fill="#f7d3d2"/><path d="M20 5V10L15 15L10 20H5L20 5Z" fill="#f7d3d2"/><path d="M15 0H20L5 15.0002L0 20.0002V15.0002L15 0Z" fill="#f7d3d2"/></g><rect x="722" y="618.86" width="103.14" height="103.14" fill="#f5f5f5"/><g transform="translate(722,618.86) scale(5.157) rotate(0)"><path d="M10 0H20L0 20V10L10 0Z" fill="#f5f5f5"/><path d="M20 10V20H10L20 10Z" fill="#f5f5f5"/></g><rect x="825.14" y="618.86" width="103.14" height="103.14" fill="#f7c2c1"/><g transform="translate(825.14,618.86) scale(5.157) rotate(0)"><path d="M5 0H10L5 5L0 10V5L5 0Z" fill="#f5f5f5"/><path d="M20 15V20H15L20 15Z" fill="#f5f5f5"/><path d="M20 5V10L15 15L10 20H5L20 5Z" fill="#f5f5f5"/><path d="M15 0H20L5 15.0002L0 20.0002V15.0002L15 0Z" fill="#f5f5f5"/></g><rect x="928.29" y="618.86" width="103.14" height="103.14" fill="#f99897"/><g transform="translate(928.29,618.86) scale(5.157) rotate(0)"><rect width="20" height="10" fill="#f5f5f5"/></g><rect x="1031.43" y="618.86" width="103.14" height="103.14" fill="#f6dedd"/><g transform="translate(1031.43,618.86) scale(5.157) rotate(0)"><path fill-rule="evenodd" clip-rule="evenodd" d="M10 20C15.5228 20 20 15.5228 20 10C20 4.47715 15.5228 0 10 0C4.47715 0 0 4.47715 0 10C0 15.5228 4.47715 20 10 20ZM10 17C13.866 17 17 13.866 17 10C17 6.13401 13.866 3 10 3C6.13401 3 3 6.13401 3 10C3 13.866 6.13401 17 10 17Z" fill="#fb6e6b"/></g><rect x="1134.5714285714284" y="618.8571428571429" width="103.14285714285714" height="103.14285714285714" fill="#F5F5F5"/><rect x="1134.57" y="618.86" width="51.57" height="51.57" fill="#fc6360"/><g transform="translate(1134.57,618.86) scale(2.5785) rotate(0)"><path d="M5 0H10L5 5L0 10V5L5 0Z" fill="#f5f4f4"/><path d="M20 15V20H15L20 15Z" fill="#f5f4f4"/><path d="M20 5V10L15 15L10 20H5L20 5Z" fill="#f5f4f4"/><path d="M15 0H20L5 15.0002L0 20.0002V15.0002L15 0Z" fill="#f5f4f4"/></g><rect x="1186.14" y="618.86" width="51.57" height="51.57" fill="#fa8b89"/><g transform="translate(1186.14,618.86) scale(2.5785) rotate(0)"><path d="M5 0H10L5 5L0 10V5L5 0Z" fill="#f5f5f5"/><path d="M20 15V20H15L20 15Z" fill="#f5f5f5"/><path d="M20 5V10L15 15L10 20H5L20 5Z" fill="#f5f5f5"/><path d="M15 0H20L5 15.0002L0 20.0002V15.0002L15 0Z" fill="#f5f5f5"/></g><rect x="1134.57" y="670.43" width="51.57" height="51.57" fill="#f5f5f5"/><g transform="translate(1134.57,670.43) scale(2.5785) rotate(0)"><rect width="20" height="10" fill="#f8b8b7"/></g><rect x="1186.14" y="670.43" width="51.57" height="51.57" fill="#f5f5f5"/><g transform="translate(1186.14,670.43) scale(2.5785) rotate(0)"><path d="M10 0H20L0 20V10L10 0Z" fill="#f8c0bf"/><path d="M20 10V20H10L20 10Z" fill="#f8c0bf"/></g><rect x="1237.71" y="618.86" width="103.14" height="103.14" fill="#f5f5f5"/><g transform="translate(1237.71,618.86) scale(5.157) rotate(0)"><rect width="20" height="10" fill="#fa9593"/></g></g></svg>